<svg xmlns="http://www.w3.org/2000/svg" viewBox="0 0 500 500"><g id="freepik--background-complete--inject-17"><rect x="62.77" y="377.4" width="35.16" height="11.19" style="fill:#ebebeb"></rect><rect x="247.29" y="92.5" width="35.16" height="11.19" style="fill:#ebebeb"></rect><path d="M78.32,402.7,60.86,403l-8.83.12-8.87,0h-.45v-.45l0-11.19V391h.5l17.58.07,8.79.08,8.79.11h.24v.24Zm0,0-.24-11.19.24.23-8.79.11-8.79.09L43.16,392l.5-.5,0,11.19-.46-.46,8.71,0,8.75.12Z" style="fill:#ebebeb"></path><path d="M344.75,295.71l-17.46.3-8.83.12-8.87,0h-.45v-.46l0-11.19V284h.5l17.58.07,8.79.09,8.79.11H345v.23Zm0,0-.24-11.19.24.24-8.79.11-8.79.08-17.58.07.5-.5,0,11.19-.46-.45,8.71,0,8.75.12Z" style="fill:#ebebeb"></path><path d="M325.14,309.82l-17.46.3-8.83.12-8.87,0h-.46v-.46l0-11.19v-.5h.5l17.58.07,8.79.09,8.79.11h.24v.23Zm0,0-.24-11.19.24.24-8.79.11-8.79.08-17.58.07.5-.5-.05,11.19-.45-.45,8.71,0,8.75.12Z" style="fill:#ebebeb"></path><rect x="270.44" y="284.52" width="35.16" height="11.19" style="fill:#ebebeb"></rect><rect x="421.68" y="391.51" width="35.16" height="11.19" style="fill:#ebebeb"></rect><rect x="402.07" y="44.93" width="35.16" height="11.19" style="fill:#ebebeb"></rect><path d="M456.84,70.23l-17.46.3-8.83.12-8.87,0h-.45v-.46L421.18,59v-.5h.5l17.58.07,8.79.09,8.79.11h.24V59Zm0,0L456.6,59l.24.24-8.79.11-8.79.08-17.58.07.5-.5,0,11.19-.46-.45,8.71,0,8.75.12Z" style="fill:#ebebeb"></path><path d="M97.93,56.12l-17.46.3-8.83.12-8.87,0h-.45v-.46l0-11.19v-.5h.5l17.58.07,8.79.09,8.79.11h.24v.23Zm0,0-.24-11.19.24.24-8.79.11-8.79.08-17.58.07.5-.5,0,11.19-.46-.45,8.71,0,8.75.12Z" style="fill:#ebebeb"></path><polygon points="463.77 193.26 340.08 193.26 340.08 42.19 450.89 42.19 463.77 54.68 463.77 193.26" style="fill:#ebebeb"></polygon><rect x="346.37" y="48.44" width="111.12" height="138.49" style="fill:#fff"></rect><g style="opacity:0.2"><polygon points="405.59 48.44 401.93 117.68 398.27 48.44 405.59 48.44" style="fill:#ebebeb"></polygon><polygon points="401.93 117.68 379.39 48.44 387.25 48.44 401.93 117.68" style="fill:#ebebeb"></polygon><polygon points="401.93 117.68 356.92 48.44 366.7 48.44 401.93 117.68" style="fill:#ebebeb"></polygon><polygon points="401.93 117.68 346.37 67.71 346.37 55.91 401.93 117.68" style="fill:#ebebeb"></polygon><polygon points="401.93 117.68 346.37 89.41 346.37 81.56 401.93 117.68" style="fill:#ebebeb"></polygon><polygon points="401.93 117.68 346.37 105.9 346.37 99.59 401.93 117.68" style="fill:#ebebeb"></polygon><polygon points="401.93 117.68 346.37 120.63 346.37 114.74 401.93 117.68" style="fill:#ebebeb"></polygon><polygon points="401.93 117.68 346.37 135.76 346.37 129.46 401.93 117.68" style="fill:#ebebeb"></polygon><polygon points="401.93 117.68 346.37 153.8 346.37 145.95 401.93 117.68" style="fill:#ebebeb"></polygon><polygon points="401.93 117.68 346.37 179.44 346.37 167.65 401.93 117.68" style="fill:#ebebeb"></polygon><polygon points="401.93 117.68 366.69 186.93 356.9 186.93 401.93 117.68" style="fill:#ebebeb"></polygon><polygon points="401.93 117.68 387.25 186.93 379.38 186.93 401.93 117.68" style="fill:#ebebeb"></polygon><polygon points="405.59 186.93 398.26 186.93 401.93 117.68 405.59 186.93" style="fill:#ebebeb"></polygon><polygon points="424.47 186.93 416.61 186.93 401.93 117.68 424.47 186.93" style="fill:#ebebeb"></polygon><polygon points="446.95 186.93 437.17 186.93 401.93 117.68 446.95 186.93" style="fill:#ebebeb"></polygon><polygon points="457.49 167.66 457.49 179.47 401.93 117.68 457.49 167.66" style="fill:#ebebeb"></polygon><polygon points="457.49 145.96 457.49 153.81 401.93 117.68 457.49 145.96" style="fill:#ebebeb"></polygon><polygon points="457.49 129.47 457.49 135.77 401.93 117.68 457.49 129.47" style="fill:#ebebeb"></polygon><polygon points="457.49 114.74 457.49 120.63 401.93 117.68 457.49 114.74" style="fill:#ebebeb"></polygon><polygon points="457.49 99.6 457.49 105.91 401.93 117.68 457.49 99.6" style="fill:#ebebeb"></polygon><polygon points="457.49 81.56 457.49 89.41 401.93 117.68 457.49 81.56" style="fill:#ebebeb"></polygon><polygon points="457.49 55.92 457.49 67.71 401.93 117.68 457.49 55.92" style="fill:#ebebeb"></polygon><polygon points="446.95 48.44 401.93 117.68 437.17 48.44 446.95 48.44" style="fill:#ebebeb"></polygon><polygon points="424.47 48.44 401.93 117.68 416.61 48.44 424.47 48.44" style="fill:#ebebeb"></polygon></g><path d="M375.6,73.85h53.71A1.18,1.18,0,0,1,430.5,75v82.35a4.13,4.13,0,0,1-4.13,4.13H375.6a1.18,1.18,0,0,1-1.18-1.18V75a1.18,1.18,0,0,1,1.18-1.18Z" transform="translate(-10.09 42.7) rotate(-6)" style="fill:#dbdbdb"></path><path d="M378,79.41h44.59a.86.86,0,0,1,.86.86v27.58a2.06,2.06,0,0,1-2.06,2.06H378a.86.86,0,0,1-.86-.86V80.27A.86.86,0,0,1,378,79.41Z" transform="translate(-7.7 42.35) rotate(-6)" style="fill:#a6a6a6"></path><rect x="387.11" y="81.76" width="25.85" height="25.85" transform="translate(-7.7 42.32) rotate(-6)" style="fill:#c7c7c7"></rect><path d="M399.75,126.08a9.67,9.67,0,1,1-10.63-8.61A9.67,9.67,0,0,1,399.75,126.08Z" style="fill:#c7c7c7"></path><rect x="387.85" y="120.18" width="4.57" height="13.82" transform="translate(-11.14 41.46) rotate(-6)" style="fill:#a6a6a6"></rect><rect x="387.85" y="120.18" width="4.57" height="13.82" transform="translate(304.49 528.36) rotate(-96)" style="fill:#a6a6a6"></rect><rect x="408.01" y="118.39" width="18.87" height="8.89" rx="1.99" transform="translate(6.18 265) rotate(-35.47)" style="fill:#c7c7c7"></rect><path d="M416.14,123.64a2.91,2.91,0,1,1-4.05-.68A2.9,2.9,0,0,1,416.14,123.64Z" style="fill:#fff"></path><path d="M423.4,118.47a2.91,2.91,0,1,1-4-.68A2.9,2.9,0,0,1,423.4,118.47Z" style="fill:#fff"></path><rect x="404.09" y="139.62" width="8.77" height="3.02" rx="0.68" transform="translate(823.05 19.1) rotate(144.54)" style="fill:#a6a6a6"></rect><rect x="419.59" y="153.52" width="5.07" height="1.12" rx="0.25" transform="translate(541.55 587.3) rotate(-125.46)" style="fill:#a6a6a6"></rect><rect x="421.1" y="152.45" width="5.07" height="1.12" rx="0.25" transform="translate(544.83 586.82) rotate(-125.47)" style="fill:#a6a6a6"></rect><rect x="422.61" y="151.37" width="5.07" height="1.12" rx="0.25" transform="translate(548.07 586.36) rotate(-125.46)" style="fill:#a6a6a6"></rect><rect x="424.12" y="150.3" width="5.07" height="1.12" rx="0.25" transform="translate(551.33 585.88) rotate(-125.47)" style="fill:#a6a6a6"></rect><rect x="425.62" y="149.22" width="5.07" height="1.12" rx="0.25" transform="translate(554.58 585.42) rotate(-125.47)" style="fill:#a6a6a6"></rect><rect x="427.13" y="148.15" width="5.07" height="1.12" rx="0.25" transform="translate(557.84 584.95) rotate(-125.46)" style="fill:#a6a6a6"></rect><rect x="395.21" y="140.56" width="8.77" height="3.02" rx="0.68" transform="translate(807.48 25.93) rotate(144.53)" style="fill:#a6a6a6"></rect><rect x="379.01" y="112.86" width="13.02" height="1.12" transform="translate(-9.74 40.91) rotate(-6)" style="fill:#a6a6a6"></rect><rect x="406.35" y="109.7" width="18.44" height="1.12" transform="translate(-9.25 44.03) rotate(-6)" style="fill:#a6a6a6"></rect><rect x="393.89" y="111.92" width="1.12" height="1.12" transform="translate(-9.59 41.83) rotate(-6)" style="fill:#a6a6a6"></rect><rect x="395.88" y="111.71" width="1.12" height="1.12" transform="translate(-9.56 42.03) rotate(-6)" style="fill:#a6a6a6"></rect><rect x="397.86" y="111.5" width="1.12" height="1.12" transform="translate(-9.53 42.24) rotate(-6)" style="fill:#a6a6a6"></rect><rect x="399.85" y="111.29" width="1.12" height="1.12" transform="translate(-9.5 42.45) rotate(-6)" style="fill:#a6a6a6"></rect><rect x="401.84" y="111.08" width="1.12" height="1.12" transform="translate(-9.46 42.61) rotate(-5.99)" style="fill:#a6a6a6"></rect><rect x="403.83" y="110.88" width="1.12" height="1.12" transform="translate(-9.43 42.86) rotate(-6)" style="fill:#a6a6a6"></rect><rect x="400.37" y="156.59" width="10" height="3.08" rx="0.69" transform="translate(-14.31 43.23) rotate(-6)" style="fill:#c7c7c7"></rect><rect x="377.04" y="143.96" width="2.13" height="13.8" transform="translate(528.97 -227.24) rotate(90)" style="fill:#fff"></rect><rect x="430.98" y="87.78" width="2.13" height="13.8" transform="translate(526.73 -337.36) rotate(90)" style="fill:#fff"></rect><rect x="429.47" y="125.57" width="2.13" height="13.8" transform="translate(563.01 -298.06) rotate(90)" style="fill:#fff"></rect><rect x="434.65" y="118.18" width="2.13" height="13.8" transform="translate(560.8 -310.64) rotate(90)" style="fill:#dbdbdb"></rect><rect x="434.65" y="149.44" width="2.13" height="13.8" transform="translate(592.05 -279.38) rotate(90)" style="fill:#dbdbdb"></rect><rect x="370.97" y="138.49" width="2.13" height="13.8" transform="translate(517.42 -226.65) rotate(90)" style="fill:#dbdbdb"></rect><rect x="367.07" y="75.17" width="2.13" height="13.8" transform="translate(450.2 -286.07) rotate(90)" style="fill:#dbdbdb"></rect><polygon points="450.89 42.19 450.89 54.68 463.77 54.68 450.89 42.19" style="fill:#ebebeb"></polygon><rect x="54.25" y="98.07" width="156.53" height="7.68" style="fill:#ebebeb"></rect><polygon points="80.27 135.98 73.3 135.98 70.5 105.75 80.27 105.75 80.27 135.98" style="fill:#ebebeb"></polygon><polygon points="184.77 135.98 191.74 135.98 194.53 105.75 184.77 105.75 184.77 135.98" style="fill:#ebebeb"></polygon><polygon points="70.5 105.75 80.26 105.75 80.26 116.16 71.46 116.16 70.5 105.75" style="fill:#dbdbdb"></polygon><polygon points="194.53 105.75 193.57 116.16 184.77 116.16 184.77 105.75 194.53 105.75" style="fill:#dbdbdb"></polygon><path d="M100.41,52C92.47,62.73,84.19,75.21,82.18,88.69a.18.18,0,0,0,.35.07A80,80,0,0,1,86,78c5.22-1.44,10.34-2.62,13.08-7.8S101.56,57.9,101,52.1C101,51.79,100.57,51.78,100.41,52Z" style="fill:#ebebeb"></path><path d="M86.12,77.87c3.56-8,8.14-16,14-22.62,0,0,.1,0,.07.06a95.82,95.82,0,0,0-9.54,15c2.63-2.67,5.51-5.06,8-7.89,0-.06.13,0,.08.08-2.47,3-5.17,6.19-8.39,8.38q-1.3,2.4-2.62,4.79l.66-.33s.08,0,0,0c-.25.13-.49.26-.75.37-.41.75-.83,1.51-1.26,2.26C86.28,78.18,86,78,86.12,77.87Z" style="fill:#a6a6a6"></path><path d="M88.77,75.07A47.07,47.07,0,0,0,94.86,71c.06-.05.13,0,.08.07a32.14,32.14,0,0,1-6.08,4.14C88.76,75.27,88.67,75.13,88.77,75.07Z" style="fill:#a6a6a6"></path><path d="M81.31,88.57c0,.16.29.16.29,0,0-4.44,0-8.9.07-13.36,1.14-2.3,3.58-3.57,5.28-5.41a23.46,23.46,0,0,0,3.16-4.41,31.68,31.68,0,0,0,3.68-12.25c.47-4.75-1.34-20.42-3.34-19.87-1,.28-4.4,8-5.29,10.61a74.36,74.36,0,0,0-3.16,13C80.38,67.33,80.52,78.06,81.31,88.57Z" style="fill:#ebebeb"></path><path d="M81.28,69.42l0,0c.24-5.62,1.51-11.29,2.69-16.74,1.28-5.87,2.77-11.4,5.79-16.63a.09.09,0,0,1,.15.08,62.31,62.31,0,0,0-4.65,12.77c.2-.32.45-.62.66-.91.08-.12.28,0,.19.11a7.78,7.78,0,0,1-.94,1.33,0,0,0,0,1,0,0c-1,4.2-1.79,8.49-2.42,12.77a2.09,2.09,0,0,1,.14-.17s.09,0,.06,0-.16.29-.25.43c-.32,2.17-.62,4.34-.92,6.49a30.67,30.67,0,0,0,9-12s0,0,0,0A24.9,24.9,0,0,1,81.7,69.43c-.08.58-.16,1.16-.25,1.74,0,.12-.2.09-.2,0,0-.51,0-1,0-1.54A.11.11,0,0,1,81.28,69.42Z" style="fill:#a6a6a6"></path><path d="M83.1,61.28A89.22,89.22,0,0,0,91,47.7c0-.05.12,0,.1,0a44,44,0,0,1-7.83,13.65C83.18,61.47,83,61.37,83.1,61.28Z" style="fill:#a6a6a6"></path><path d="M87,46.61c1.23-2.17,2.52-4.27,3.67-6.48,0-.07.12,0,.09,0a33.71,33.71,0,0,1-3.57,6.54A.11.11,0,0,1,87,46.61Z" style="fill:#a6a6a6"></path><path d="M86.55,47.55a0,0,0,1,1,0,0S86.53,47.55,86.55,47.55Z" style="fill:#a6a6a6"></path><path d="M79.14,77.19a45.78,45.78,0,0,1-1,8.75c.05.32.09.63.14,1a41.41,41.41,0,0,0,1.56-9.75.32.32,0,0,0,0-.3h0a65.74,65.74,0,0,0-1-13.21c-1.38-8.16-4.38-16-10.07-22.11a.41.41,0,0,0-.63.13c-2.3,5.84-1.5,12.8.46,18.63a33.92,33.92,0,0,0,4.51,8.85C75.06,71.87,77.55,74.2,79.14,77.19Z" style="fill:#ebebeb"></path><path d="M69.44,44.25C74.83,53,78.58,63.38,79,73.72c0,.19-.3.23-.32,0-.13-.93-.27-1.85-.42-2.77h0a35.56,35.56,0,0,1-6.12-7.07s0-.1.08-.06a72.86,72.86,0,0,0,5.94,6.47q-.57-3.42-1.38-6.75c-.15-.16-.29-.33-.43-.5s.06-.27.16-.16l.13.14a80.07,80.07,0,0,0-2.82-9c-1.37-1.64-2.91-3-3.91-5a0,0,0,0,1,.07,0,40.41,40.41,0,0,0,2.5,3.31c.36.42.76.81,1.14,1.22a69.89,69.89,0,0,0-4.42-9.21C69.15,44.24,69.36,44.12,69.44,44.25Z" style="fill:#a6a6a6"></path><path d="M70.53,55.05c1.74,2.34,3.73,4.58,5.35,7,.05.07-.06.14-.11.09a35.92,35.92,0,0,1-5.36-7C70.36,55,70.48,55,70.53,55.05Z" style="fill:#a6a6a6"></path><path d="M76.12,62.6l.08.08s0,.13-.08.08L76,62.68C76,62.63,76.07,62.55,76.12,62.6Z" style="fill:#a6a6a6"></path><path d="M60.16,58.87a26.82,26.82,0,0,0,5.69,13.35,14.19,14.19,0,0,0,4.61,3.6c2,1,4.09,2.13,6.16,2.94a39.84,39.84,0,0,1,2.18,7.75c.07-.23.14-.46.2-.69-1.32-11.4-8.7-21.15-18.14-27.4A.45.45,0,0,0,60.16,58.87Z" style="fill:#ebebeb"></path><path d="M63.42,62.23c-.07,0,0-.17.09-.12a38.64,38.64,0,0,1,12,14.82c.07.16-.15.29-.24.14-.44-.77-.88-1.52-1.34-2.25h0a13,13,0,0,1-5.8-3.36s0-.11.07-.07A13.24,13.24,0,0,0,71,73.31c.88.44,1.83.72,2.74,1.08-.8-1.27-1.63-2.48-2.5-3.66a25,25,0,0,1-6.47-3.64.06.06,0,0,1,.06-.1,65.49,65.49,0,0,0,6,3.21,53.33,53.33,0,0,0-4.24-5c-.74-.39-1.48-.77-2.19-1.19-.06,0,0-.13,0-.11a7.88,7.88,0,0,1,1.67.83C65.23,63.91,64.36,63.06,63.42,62.23Z" style="fill:#a6a6a6"></path><path d="M63.62,66.17a2.36,2.36,0,0,1,.36.26s0,.08,0,.06a2.71,2.71,0,0,1-.37-.21A.06.06,0,0,1,63.62,66.17Z" style="fill:#a6a6a6"></path><polygon points="90.6 98.07 71.17 98.07 72.13 85.33 72.49 81.17 89.11 81.17 89.47 85.33 90.6 98.07" style="fill:#dbdbdb"></polygon><polygon points="89.47 85.33 72.13 85.33 72.49 81.17 89.11 81.17 89.47 85.33" style="fill:#c7c7c7"></polygon><rect x="71.17" y="77.77" width="19.26" height="4.26" style="fill:#dbdbdb"></rect><rect x="108.88" y="69.09" width="46.25" height="11.65" transform="translate(206.91 -57.09) rotate(90)" style="fill:#c7c7c7"></rect><rect x="129.46" y="46.03" width="5.08" height="11.65" transform="translate(183.86 -80.15) rotate(90)" style="fill:#dbdbdb"></rect><rect x="131.06" y="56.03" width="1.89" height="11.65" transform="translate(193.85 -70.15) rotate(90)" style="fill:#dbdbdb"></rect><rect x="129.46" y="83.61" width="5.08" height="11.65" transform="translate(221.43 -42.57) rotate(90)" style="fill:#dbdbdb"></rect><rect x="114.92" y="66.99" width="53.95" height="8.14" transform="translate(212.96 -70.84) rotate(90)" style="fill:#dbdbdb"></rect><rect x="131.49" y="57.09" width="20.75" height="4.88" transform="translate(201.39 -82.33) rotate(90)" style="fill:#ebebeb"></rect><rect x="154.93" y="72.05" width="53.95" height="8.14" transform="translate(106.04 -105.89) rotate(44.67)" style="fill:#c7c7c7"></rect><rect x="174.35" y="76.42" width="20.75" height="4.89" transform="translate(108.79 -107.08) rotate(44.67)" style="fill:#dbdbdb"></rect><rect x="132.38" y="70.64" width="40.98" height="13.82" transform="translate(230.43 -75.32) rotate(90)" style="fill:#a6a6a6"></rect><rect x="150.96" y="84.88" width="3.82" height="13.82" transform="translate(244.66 -61.08) rotate(90)" style="fill:#c7c7c7"></rect><rect x="152.13" y="79.72" width="1.48" height="13.82" transform="translate(239.51 -66.24) rotate(90)" style="fill:#c7c7c7"></rect><rect x="95.01" y="73.71" width="38.51" height="9.55" transform="translate(231.47 4.45) rotate(113.23)" style="fill:#a6a6a6"></rect><rect x="107.19" y="86.01" width="3.59" height="9.55" transform="translate(235.4 26.44) rotate(113.23)" style="fill:#c7c7c7"></rect><rect x="116.23" y="64.96" width="3.59" height="9.55" transform="translate(228.66 -11.21) rotate(113.23)" style="fill:#c7c7c7"></rect><rect x="115.37" y="69.51" width="1.39" height="9.55" transform="translate(230.12 -3.07) rotate(113.23)" style="fill:#c7c7c7"></rect></g><g id="freepik--Floor--inject-17"><polygon points="36.23 461.72 89.67 461.48 143.11 461.39 250 461.22 356.89 461.39 410.33 461.48 463.77 461.72 410.33 461.96 356.89 462.05 250 462.22 143.11 462.05 89.67 461.96 36.23 461.72" style="fill:#263238"></polygon></g><g id="freepik--Table--inject-17"><rect x="51.59" y="237.05" width="78.62" height="224.52" transform="translate(181.79 698.62) rotate(180)" style="fill:#37474f"></rect><rect x="369.79" y="237.05" width="78.62" height="224.52" transform="translate(818.21 698.62) rotate(180)" style="fill:#37474f"></rect><rect x="51.59" y="237.05" width="318.21" height="24.44" transform="translate(421.38 498.54) rotate(180)" style="fill:#455a64"></rect><polygon points="369.29 249.27 329.57 249.45 289.86 249.51 210.44 249.64 131.01 249.51 91.3 249.45 51.59 249.27 91.3 249.08 131.01 249.02 210.44 248.89 289.86 249.02 329.57 249.08 369.29 249.27" style="fill:#263238"></polygon><rect x="359.21" y="237.05" width="10.58" height="224.52" transform="translate(729 698.62) rotate(180)" style="fill:#455a64"></rect><rect x="51.59" y="237.05" width="10.58" height="224.52" transform="translate(113.75 698.62) rotate(180)" style="fill:#455a64"></rect></g><g id="freepik--Plant--inject-17"><path d="M422.3,397.08s9.43-33.83,17-45.33,21.56-24.11,21.56-24.11S460.49,379.81,422.3,397.08Z" style="fill:#EEBEFA"></path><path d="M423,396.5a162.55,162.55,0,0,0,8.59-16.39,114.42,114.42,0,0,1,4.68-17.79.09.09,0,0,1,.17.05c-1.25,5.35-2.71,10.65-4,16,3.8-8.24,7.42-16.58,11.95-24.36a52.47,52.47,0,0,1,4.37-10.83c.05-.1.22,0,.17.06a69.17,69.17,0,0,0-2.94,8.12,81.43,81.43,0,0,1,7.16-9.89c.17-.19.5,0,.33.23-6.06,7.73-10.24,16.53-14.22,25.44A135.67,135.67,0,0,0,451,352.33c0-.05.11,0,.08.06a121.5,121.5,0,0,1-12.67,16.42c-2.9,6.53-5.75,13.08-9.21,19.29,6.91-5.84,12.23-13.4,17.49-20.69a.16.16,0,0,1,.26.17c-5.26,8-10.71,15.55-18.29,21.47a84.11,84.11,0,0,1-5.06,7.91A.4.4,0,0,1,423,396.5Z" style="fill:#263238"></path><path d="M420.51,397.13s16.94-31.2,12-61.45-10.19-41-10.19-41S395.7,341.71,420.51,397.13Z" style="fill:#EEBEFA"></path><path d="M413.55,348.08a148.91,148.91,0,0,0,6.54,25.19c.05-11.1.26-22.2.56-33.3a86,86,0,0,1-3.2-20.67c0-.21.3-.19.32,0a118.36,118.36,0,0,0,3,17.79q.39-13.72.9-27.46a.12.12,0,0,1,.24,0c0,14.3,0,28.61-.1,42.92a114.52,114.52,0,0,0,4.89-17c0-.05.1,0,.1,0-.51,6.68-2.54,13.14-5,19.34-.06,9.14-.16,18.28-.36,27.43,2.86-9.72,5.92-19.14,6.75-29.41a.11.11,0,0,1,.22,0c-.23,11.33-3.15,22.83-6.88,33.48a.69.69,0,0,1-.19.27c-.09,3.34-.18,6.68-.29,10a.38.38,0,0,1-.75,0q-.19-10.24-.17-20.51a92.16,92.16,0,0,1-6.68-28.08C413.4,348,413.54,348,413.55,348.08Z" style="fill:#263238"></path><path d="M414.71,343.26a58.84,58.84,0,0,1,1.19,8.24.08.08,0,0,1-.16,0,58.57,58.57,0,0,1-1.4-8.22C414.32,343.09,414.67,343.05,414.71,343.26Z" style="fill:#263238"></path><path d="M424.62,320.45c0-.09.16-.06.16,0a20.67,20.67,0,0,1-.85,5.68c0,.15-.26.08-.23-.07C424.07,324.22,424.3,322.33,424.62,320.45Z" style="fill:#263238"></path><path d="M414.32,397.13s.69-32.57-8.65-48.76-24.84-24.43-24.84-24.43S387.08,381.35,414.32,397.13Z" style="fill:#EEBEFA"></path><path d="M397.29,369.28a121.65,121.65,0,0,0,12.64,16c-1.86-6.66-4-13.2-6.46-19.64-5.24-4.59-10.43-9.35-13.65-15.63-.05-.1.09-.19.15-.09,3.46,5.56,8.08,10,12.94,14.3a252.62,252.62,0,0,0-13-28.32.2.2,0,0,1,.35-.21,154.22,154.22,0,0,1,8.16,14.86c-.88-3.48-1.58-7-2.48-10.49a.08.08,0,0,1,.15,0,58.8,58.8,0,0,1,3.84,13.81,164.91,164.91,0,0,1,8.22,22.29c-.24-4.89-.54-9.75-1-14.62,0-.09.15-.11.17,0a79.29,79.29,0,0,1,1.41,16.41q2,7.27,3.39,14.71c0,.13-.17.19-.2.05-.51-2.07-1.06-4.13-1.62-6.18a.21.21,0,0,1-.11,0c-5-5-9.77-10.74-12.9-17.14A0,0,0,1,1,397.29,369.28Z" style="fill:#263238"></path><path d="M386.47,342.78c1,1.12,2,2.3,3,3.46a27.54,27.54,0,0,1,2.69,3.14.06.06,0,0,1-.08.08,15.81,15.81,0,0,1-3.1-3.07,25,25,0,0,1-2.66-3.5C386.26,342.8,386.39,342.7,386.47,342.78Z" style="fill:#263238"></path><path d="M441,399.51l-1.17,15.43-3.55,46.63h-31l-3.55-46.63-1.18-15.43H441Z" style="fill:#c7c7c7"></path><path d="M441,399.51l-.71,9.38-38.85,1.56-.84-10.94H441Z" style="fill:#a6a6a6"></path><rect x="397.8" y="391.94" width="45.9" height="11.83" transform="translate(841.51 795.71) rotate(180)" style="fill:#c7c7c7"></rect></g><g id="freepik--device-2--inject-17"><rect x="36.22" y="349.4" width="39.46" height="112.18" style="fill:#37474f"></rect><rect x="75.69" y="349.4" width="96.4" height="112.18" transform="translate(247.77 810.97) rotate(180)" style="fill:#263238"></rect><rect x="36.22" y="368.02" width="39.46" height="1.33" style="fill:#263238"></rect><rect x="36.22" y="385.31" width="39.46" height="1.33" style="fill:#263238"></rect><rect x="36.22" y="393.07" width="39.46" height="1.33" style="fill:#263238"></rect><circle cx="55.96" cy="410.36" r="3.99" style="fill:#263238"></circle><circle cx="55.96" cy="410.36" r="2.44" style="fill:#EEBEFA"></circle><rect x="126.01" y="359.15" width="37.69" height="57.86" style="opacity:0.1"></rect><rect x="144.85" y="362.47" width="15.96" height="21.06" style="fill:#455a64"></rect><path d="M172.26,454.61v-1c11,0,18.34-17.29,19.58-46.24,1.35-31.87,0-169.24,0-170.33h1c0,1.09,1.35,138.49,0,170.38C191.56,437.41,184.06,454.61,172.26,454.61Z" style="fill:#263238"></path><path d="M172.26,450.31v-1c11,0,18.34-17.29,19.58-46.25,1.35-31.86,0-165,0-166l1,0c0,1,1.35,134.18,0,166.07C191.56,433.11,184.06,450.31,172.26,450.31Z" style="fill:#263238"></path><path d="M172.26,449.79v-1c9.37,0,15.6-17.28,16.65-46.24,1.16-31.86,0-164.47,0-165.51h1c0,1,1.16,133.67,0,165.56C188.82,432.59,182.39,449.79,172.26,449.79Z" style="fill:#263238"></path><path d="M172.26,446v-1c8.32,0,13.85-17.28,14.79-46.23,1-31.88,0-160.73,0-161.73h1c0,1,1,129.88,0,161.77C187.08,428.8,181.32,446,172.26,446Z" style="fill:#263238"></path></g><g id="freepik--devices-1--inject-17"><rect x="63.83" y="117.73" width="108.34" height="94.07" style="fill:#37474f"></rect><rect x="172.17" y="117.73" width="5.14" height="94.07" style="fill:#263238"></rect><rect x="70.21" y="123.84" width="95.58" height="81.33" style="fill:#263238"></rect><rect x="70.21" y="123.84" width="95.58" height="3.06" style="fill:#455a64"></rect><path d="M72.45,125.37a.52.52,0,1,1-.51-.51A.51.51,0,0,1,72.45,125.37Z" style="fill:#37474f"></path><path d="M74.56,125.37a.52.52,0,1,1-.51-.51A.51.51,0,0,1,74.56,125.37Z" style="fill:#fff"></path><path d="M76.67,125.37a.52.52,0,1,1-.51-.51A.51.51,0,0,1,76.67,125.37Z" style="fill:#EEBEFA"></path><rect x="74.79" y="131.96" width="26.16" height="33.49" style="fill:#37474f"></rect><rect x="74.79" y="131.96" width="26.16" height="4.96" style="fill:#EEBEFA"></rect><rect x="77.93" y="143.5" width="5.46" height="1.05" style="fill:#EEBEFA"></rect><rect x="77.93" y="157.54" width="5.46" height="1.05" style="fill:#ebebeb"></rect><rect x="84.89" y="143.5" width="9.43" height="1.05" style="fill:#a6a6a6"></rect><rect x="77.93" y="157.54" width="12.66" height="1.05" style="fill:#a6a6a6"></rect><rect x="77.93" y="151.92" width="5.53" height="1.05" style="fill:#a6a6a6"></rect><rect x="77.93" y="146.31" width="13.79" height="1.05" style="fill:#ebebeb"></rect><rect x="77.93" y="149.11" width="9.3" height="1.05" style="fill:#ebebeb"></rect><rect x="77.93" y="160.35" width="17.03" height="1.05" style="fill:#EEBEFA"></rect><rect x="77.93" y="154.73" width="11.68" height="1.05" style="fill:#EEBEFA"></rect><rect x="77.93" y="151.92" width="18.33" height="1.05" style="fill:#EEBEFA"></rect><rect x="104.92" y="131.96" width="26.16" height="33.49" style="fill:#37474f"></rect><rect x="104.92" y="131.96" width="26.16" height="4.96" style="fill:#EEBEFA"></rect><rect x="108.05" y="143.5" width="5.46" height="1.05" style="fill:#EEBEFA"></rect><rect x="108.05" y="157.54" width="5.46" height="1.05" style="fill:#ebebeb"></rect><rect x="115.01" y="143.5" width="9.43" height="1.05" style="fill:#a6a6a6"></rect><rect x="108.05" y="157.54" width="12.66" height="1.05" style="fill:#a6a6a6"></rect><rect x="108.05" y="151.92" width="5.53" height="1.05" style="fill:#a6a6a6"></rect><rect x="108.05" y="146.31" width="13.79" height="1.05" style="fill:#ebebeb"></rect><rect x="108.05" y="149.11" width="9.3" height="1.05" style="fill:#ebebeb"></rect><rect x="108.05" y="160.35" width="17.03" height="1.05" style="fill:#EEBEFA"></rect><rect x="108.05" y="154.73" width="11.68" height="1.05" style="fill:#EEBEFA"></rect><rect x="108.05" y="151.92" width="18.33" height="1.05" style="fill:#EEBEFA"></rect><rect x="135.04" y="131.96" width="26.16" height="33.49" style="fill:#37474f"></rect><rect x="135.04" y="131.96" width="26.16" height="4.96" style="fill:#EEBEFA"></rect><rect x="138.18" y="143.5" width="5.46" height="1.05" style="fill:#EEBEFA"></rect><rect x="138.18" y="157.54" width="5.46" height="1.05" style="fill:#ebebeb"></rect><rect x="145.14" y="143.5" width="9.43" height="1.05" style="fill:#a6a6a6"></rect><rect x="138.18" y="157.54" width="12.66" height="1.05" style="fill:#a6a6a6"></rect><rect x="138.18" y="151.92" width="5.53" height="1.05" style="fill:#a6a6a6"></rect><rect x="138.18" y="146.31" width="13.79" height="1.05" style="fill:#ebebeb"></rect><rect x="138.18" y="149.11" width="9.3" height="1.05" style="fill:#ebebeb"></rect><rect x="138.18" y="160.35" width="17.03" height="1.05" style="fill:#EEBEFA"></rect><rect x="138.18" y="154.73" width="11.68" height="1.05" style="fill:#EEBEFA"></rect><rect x="138.18" y="151.92" width="18.33" height="1.05" style="fill:#EEBEFA"></rect><rect x="74.79" y="168.83" width="26.16" height="33.49" style="fill:#37474f"></rect><rect x="74.79" y="168.83" width="26.16" height="4.96" style="fill:#EEBEFA"></rect><rect x="77.93" y="180.36" width="5.46" height="1.05" style="fill:#EEBEFA"></rect><rect x="77.93" y="194.41" width="5.46" height="1.05" style="fill:#ebebeb"></rect><rect x="84.89" y="180.36" width="9.43" height="1.05" style="fill:#a6a6a6"></rect><rect x="77.93" y="194.41" width="12.66" height="1.05" style="fill:#a6a6a6"></rect><rect x="77.93" y="188.79" width="5.53" height="1.05" style="fill:#a6a6a6"></rect><rect x="77.93" y="183.17" width="13.79" height="1.05" style="fill:#ebebeb"></rect><rect x="77.93" y="185.98" width="9.3" height="1.05" style="fill:#ebebeb"></rect><rect x="77.93" y="197.22" width="17.03" height="1.05" style="fill:#EEBEFA"></rect><rect x="77.93" y="191.6" width="11.68" height="1.05" style="fill:#EEBEFA"></rect><rect x="77.93" y="188.79" width="18.33" height="1.05" style="fill:#EEBEFA"></rect><rect x="104.92" y="168.83" width="26.16" height="33.49" style="fill:#37474f"></rect><rect x="104.92" y="168.83" width="26.16" height="4.96" style="fill:#EEBEFA"></rect><rect x="108.05" y="180.36" width="5.46" height="1.05" style="fill:#EEBEFA"></rect><rect x="108.05" y="194.41" width="5.46" height="1.05" style="fill:#ebebeb"></rect><rect x="115.01" y="180.36" width="9.43" height="1.05" style="fill:#a6a6a6"></rect><rect x="108.05" y="194.41" width="12.66" height="1.05" style="fill:#a6a6a6"></rect><rect x="108.05" y="188.79" width="5.53" height="1.05" style="fill:#a6a6a6"></rect><rect x="108.05" y="183.17" width="13.79" height="1.05" style="fill:#ebebeb"></rect><rect x="108.05" y="185.98" width="9.3" height="1.05" style="fill:#ebebeb"></rect><rect x="108.05" y="197.22" width="17.03" height="1.05" style="fill:#EEBEFA"></rect><rect x="108.05" y="191.6" width="11.68" height="1.05" style="fill:#EEBEFA"></rect><rect x="108.05" y="188.79" width="18.33" height="1.05" style="fill:#EEBEFA"></rect><rect x="135.04" y="168.83" width="26.16" height="33.49" style="fill:#37474f"></rect><rect x="138.18" y="180.36" width="5.46" height="1.05" style="fill:#EEBEFA"></rect><rect x="138.18" y="194.41" width="5.46" height="1.05" style="fill:#ebebeb"></rect><rect x="145.14" y="180.36" width="9.43" height="1.05" style="fill:#a6a6a6"></rect><rect x="138.18" y="194.41" width="12.66" height="1.05" style="fill:#a6a6a6"></rect><rect x="138.18" y="188.79" width="5.53" height="1.05" style="fill:#a6a6a6"></rect><rect x="138.18" y="183.17" width="13.79" height="1.05" style="fill:#ebebeb"></rect><rect x="138.18" y="185.98" width="9.3" height="1.05" style="fill:#ebebeb"></rect><rect x="138.18" y="197.22" width="17.03" height="1.05" style="fill:#EEBEFA"></rect><rect x="138.18" y="191.6" width="11.68" height="1.05" style="fill:#EEBEFA"></rect><rect x="138.18" y="188.79" width="18.33" height="1.05" style="fill:#EEBEFA"></rect><rect x="135.04" y="168.83" width="26.16" height="4.96" style="fill:#EEBEFA"></rect><polygon points="89.51 237.05 154.72 237.05 154.72 232.54 90.22 232.54 89.51 237.05" style="fill:#263238"></polygon><rect x="102.35" y="232.55" width="52.38" height="4.51" transform="translate(257.07 469.6) rotate(180)" style="fill:#37474f"></rect><polygon points="93.22 232.55 131.3 232.55 133.03 211.8 99.49 211.8 93.22 232.55" style="fill:#263238"></polygon><polygon points="98.93 232.55 137 232.55 138.74 211.8 105.19 211.8 98.93 232.55" style="fill:#37474f"></polygon><polygon points="102.65 220.22 138.17 218.54 138.74 211.8 105.19 211.8 102.65 220.22" style="fill:#263238"></polygon><polygon points="276.25 237.05 211.03 237.05 211.03 232.54 275.53 232.54 276.25 237.05" style="fill:#263238"></polygon><rect x="211.03" y="232.55" width="52.38" height="4.51" style="fill:#37474f"></rect><polygon points="275.53 232.55 234.45 232.55 236.72 211.8 273.26 211.8 275.53 232.55" style="fill:#263238"></polygon><polygon points="269.83 232.55 228.75 232.55 231.02 211.8 267.56 211.8 269.83 232.55" style="fill:#37474f"></polygon><polygon points="268.47 220.14 230.29 218.48 231.02 211.8 267.56 211.8 268.47 220.14" style="fill:#263238"></polygon><rect x="173.9" y="117.73" width="148.34" height="94.07" style="fill:#37474f"></rect><rect x="322.24" y="117.73" width="5.14" height="94.07" style="fill:#263238"></rect><rect x="180.28" y="123.84" width="135.58" height="81.33" style="fill:#263238"></rect><g style="opacity:0.2"><path d="M235.55,144.28a13.62,13.62,0,0,0-.67-5.17A8.63,8.63,0,0,0,232,135a7.79,7.79,0,0,0-1-.63,6.66,6.66,0,0,0-1.1-.41,6,6,0,0,0-2.26-.17,9,9,0,0,0-4.2,1.71l-.23.17-.18.15c-.12.11-.24.21-.35.33a7.19,7.19,0,0,0-.66.77,11.71,11.71,0,0,0-1.12,1.87,33,33,0,0,0-1.75,4.49c-1,3.18-1.89,6.56-2.89,10-.25.86-.51,1.72-.78,2.59s-.56,1.73-.87,2.6a37,37,0,0,1-2.24,5.29q-.36.67-.81,1.35c-.15.23-.32.46-.5.69s-.37.43-.56.63a11.31,11.31,0,0,1-2.54,2,28.87,28.87,0,0,1-5.27,2.25c-1.72.6-3.4,1.18-5,1.88a23.58,23.58,0,0,0-4.5,2.55,15.13,15.13,0,0,0-3.5,3.6,11.74,11.74,0,0,0-1.93,4.4,7.34,7.34,0,0,0-.09,2.18,5,5,0,0,0,.58,1.86,4.25,4.25,0,0,0,2.68,2.06,6,6,0,0,0,1.76.18,8.39,8.39,0,0,0,1.87-.34l.47-.16.56-.2c.37-.15.74-.29,1.1-.45a22.13,22.13,0,0,0,2.13-1.05c1.4-.76,2.79-1.71,4.33-2.73a40.94,40.94,0,0,1,5.08-2.91,32.13,32.13,0,0,1,5.7-2l.73-.17.65-.14c.36-.08.73-.17,1.09-.27.73-.21,1.45-.45,2.15-.72a17.5,17.5,0,0,0,7.15-5,17.29,17.29,0,0,0,2.4-3.7,18.69,18.69,0,0,0,.9-2.15,21.29,21.29,0,0,0,.68-2.31c.19-.8.35-1.62.47-2.46.06-.39.12-.9.18-1.36s.14-1,.22-1.42a41,41,0,0,1,1.39-5.45c.57-1.76,1.26-3.46,1.94-5.13.35-.83.69-1.66,1-2.49A10.17,10.17,0,0,0,235.55,144.28Zm.69,0a7.06,7.06,0,0,1-.23,1.4c-.11.45-.24.89-.37,1.32-.27.87-.54,1.72-.78,2.58s-.46,1.72-.63,2.58a26.29,26.29,0,0,0-.39,2.62,26.57,26.57,0,0,0,0,5.2c0,.42.1.85.16,1.27s.13.82.2,1.32a28,28,0,0,1,.25,2.92,21.12,21.12,0,0,1-.65,6,18.64,18.64,0,0,1-2.61,5.77,20.73,20.73,0,0,1-4.41,4.65,23.74,23.74,0,0,1-5.45,3.14,25.49,25.49,0,0,1-2.94,1c-.51.14-1,.26-1.53.36l-1.26.26a27.31,27.31,0,0,0-4.51,1.35,35.68,35.68,0,0,0-4.42,2.15c-1.52.84-3.17,1.81-5,2.63a27.23,27.23,0,0,1-2.8,1.12c-.48.16-1,.3-1.44.44l-.73.19c-.27.07-.55.13-.83.18a12.53,12.53,0,0,1-3.47.16,10.8,10.8,0,0,1-3.48-1A9.18,9.18,0,0,1,186,191.8a8.51,8.51,0,0,1-1.77-3.15,9.07,9.07,0,0,1-.38-3.4,11.34,11.34,0,0,1,.69-3.12,17.24,17.24,0,0,1,3.11-5,20.58,20.58,0,0,1,2-2,23.31,23.31,0,0,1,2.25-1.74c3.12-2.13,6.59-3.45,9.76-5a19.78,19.78,0,0,0,4.26-2.71,7.46,7.46,0,0,0,1.41-1.67l.25-.44c.07-.15.14-.3.2-.46.14-.33.26-.69.38-1.06.24-.75.43-1.56.61-2.38s.35-1.68.52-2.53l.5-2.6c.17-.87.35-1.75.54-2.63a56.79,56.79,0,0,1,3.2-10.63,25,25,0,0,1,2.94-5.18c.31-.41.65-.81,1-1.21a11.52,11.52,0,0,1,1.18-1.13,10.7,10.7,0,0,1,1.37-1c.25-.15.51-.29.77-.42l.4-.18.36-.15a15.27,15.27,0,0,1,3-.81,11.08,11.08,0,0,1,3.15,0,8.74,8.74,0,0,1,3,.94,7.88,7.88,0,0,1,1.29.83,8.8,8.8,0,0,1,1.11,1,11.67,11.67,0,0,1,2.62,5A18.67,18.67,0,0,1,236.24,144.31Z" style="fill:#fff"></path><path d="M251.51,164.63a21.87,21.87,0,0,0,3.23-4.86c.89-1.74,1.63-3.57,2.37-5.41.38-.92.74-1.85,1.15-2.78a25.68,25.68,0,0,1,1.37-2.79,13.18,13.18,0,0,1,2-2.69,8.32,8.32,0,0,1,3.17-2.09c.32-.12.65-.2,1-.29s.68-.12,1-.17.68,0,1,0l1,.06a12.87,12.87,0,0,1,3.68.94,14.83,14.83,0,0,1,3.23,1.85,20.42,20.42,0,0,1,2.62,2.33,44.6,44.6,0,0,1,4,5l1.73,2.45.85,1.17.42.57.43.56c.58.72,1.16,1.43,1.78,2.07a15.36,15.36,0,0,0,1.93,1.72,15,15,0,0,0,2.33,1.39c.85.42,1.76.82,2.68,1.19,1.87.74,3.82,1.4,5.8,2.13l1.48.56c.5.19,1,.39,1.48.61a21.74,21.74,0,0,1,2.91,1.51,10.64,10.64,0,0,1,2.59,2.21,7.87,7.87,0,0,1,1.55,3.08,8.69,8.69,0,0,1,.22,1.67v.82c0,.27,0,.52-.05.79a17.37,17.37,0,0,1-.57,3.11,16.36,16.36,0,0,1-1.18,2.95c-.13.24-.25.48-.39.71l-.41.68c-.3.44-.61.89-.94,1.3a21.64,21.64,0,0,1-4.68,4.38,28.46,28.46,0,0,1-2.74,1.7c-.93.52-1.9,1-2.88,1.41-.5.2-1,.42-1.49.6l-.75.28-.76.26c-1,.35-2,.65-3.08.91l-1.55.38-1.57.32-1.57.27c-.53.07-1.06.16-1.59.22l-3,.37-1.47.21-.73.1-.73.12A94.17,94.17,0,0,0,266.92,201c-1.9.54-3.79,1.12-5.82,1.68-1,.29-2.08.55-3.23.76a19.7,19.7,0,0,1-3.7.35,15.45,15.45,0,0,1-3.93-.54,17.53,17.53,0,0,1-3.52-1.37c-.56-.27-1.06-.57-1.57-.86l-.73-.46c-.24-.15-.48-.3-.73-.48l-.73-.52-.36-.26-.35-.29a15.85,15.85,0,0,1-1.37-1.23l-.65-.65-.61-.73-.3-.36c-.1-.12-.19-.26-.28-.39l-.53-.79c-.17-.27-.31-.56-.46-.84l-.23-.42c-.07-.15-.12-.3-.19-.44-.12-.3-.24-.59-.35-.89s-.19-.61-.27-.91a11.81,11.81,0,0,1-.39-3.66v-.44c0-.15,0-.3.05-.44,0-.29.06-.58.11-.87a14.86,14.86,0,0,1,.39-1.66,19.35,19.35,0,0,1,1.17-3.06,28.25,28.25,0,0,1,1.55-2.75,47.4,47.4,0,0,1,3.64-4.92c.32-.39.63-.78,1-1.16s.64-.77,1-1.14.66-.75,1-1.12l1-1.11Zm.5.43q-2,2.2-3.77,4.58l-.44.59-.43.6c-.28.4-.55.81-.82,1.22-.55.82-1.05,1.66-1.54,2.51a32.52,32.52,0,0,0-2.41,5.24,25.35,25.35,0,0,0-.77,2.69,16.63,16.63,0,0,0-.36,2.66c0,.43,0,.86,0,1.28l.05.61,0,.31.06.29a8.25,8.25,0,0,0,.68,2.21l.24.5.29.48c.05.08.09.16.15.24l.17.22.34.45.38.43.19.21.22.2.42.41.47.38a17.58,17.58,0,0,0,2.07,1.43c.18.12.38.23.58.34l.59.32c.4.19.79.4,1.18.56a11.52,11.52,0,0,0,2.24.78A9.21,9.21,0,0,0,254,197a22.17,22.17,0,0,0,5.08-.9c.94-.24,1.9-.5,2.89-.77s2-.51,3-.76a88.62,88.62,0,0,1,12.45-2.08l.79-.08.78-.06,1.57-.12,3.06-.19c1-.06,1.95-.14,2.92-.23l1.44-.16,1.44-.19c1-.15,1.91-.3,2.85-.5l.71-.14.7-.16c.47-.1.92-.23,1.39-.34a30.09,30.09,0,0,0,5.3-2,19.17,19.17,0,0,0,2.4-1.42,13.76,13.76,0,0,0,2.12-1.76,12.42,12.42,0,0,0,2.95-4.56,13.47,13.47,0,0,0,.63-2.67c0-.23.05-.47.07-.69l0-.67a7,7,0,0,0-.17-1.29,5.14,5.14,0,0,0-1.14-2.27,7.89,7.89,0,0,0-2.13-1.67,16.5,16.5,0,0,0-2.65-1.13c-.94-.31-1.9-.57-2.88-.8-2-.46-4-.82-6.07-1.27-1-.23-2.08-.5-3.15-.83a19.8,19.8,0,0,1-3.21-1.27,21.06,21.06,0,0,1-5.49-4.25c-3.05-3.2-5.22-6.68-7.62-9.42a15.9,15.9,0,0,0-3.77-3.33,9.39,9.39,0,0,0-2.18-.94,4.86,4.86,0,0,0-2-.21,5.12,5.12,0,0,0-2.06.79,10.54,10.54,0,0,0-2,1.73,23.51,23.51,0,0,0-1.78,2.23c-.56.79-1.1,1.61-1.62,2.45-1.05,1.67-2,3.4-3.08,5.1A36.11,36.11,0,0,1,252,165.06Z" style="fill:#fff"></path><path d="M279.07,128.1a14,14,0,0,1,1.84,0l.86.08.83.12c.55.09,1.08.21,1.6.33a55.88,55.88,0,0,1,5.95,1.88l.68.25.3.1.32.09a6.2,6.2,0,0,0,.65.14l.68.1c.23,0,.46,0,.7,0l.71,0c.48,0,1,0,1.47-.05,2-.13,4-.51,6.15-.58a11,11,0,0,1,3.41.39,7.88,7.88,0,0,1,2.48,1.26l.38.28.35.31a10.74,10.74,0,0,1,1.25,1.37c.19.24.36.53.54.8s.31.56.46.85.25.58.37.88.1.3.15.44l.13.45.07.23,0,.22.1.45c.07.31.1.6.14.91a13.87,13.87,0,0,1-.05,3.53,17,17,0,0,1-.84,3.32,16,16,0,0,1-1.48,3l-.45.7c-.16.23-.34.45-.5.67s-.35.44-.53.65a8.27,8.27,0,0,1-.55.63,20.72,20.72,0,0,1-2.45,2.24,21,21,0,0,1-2.72,1.8,17.09,17.09,0,0,1-2.91,1.29,11.21,11.21,0,0,1-3.09.55,7,7,0,0,1-3.11-.68,12,12,0,0,1-2.68-1.81,31.75,31.75,0,0,1-4.35-4.79c-.65-.85-1.24-1.73-1.79-2.62a1.54,1.54,0,0,0-.17-.24l-.16-.19c-.12-.12-.2-.26-.33-.37l-.18-.18-.19-.18c-.11-.12-.27-.23-.39-.35a22.1,22.1,0,0,0-1.95-1.42l-1.19-.75-.64-.4-.66-.44c-.45-.29-.91-.64-1.38-1a14.91,14.91,0,0,1-1.42-1.28,10,10,0,0,1-1.35-1.68,9.18,9.18,0,0,1-1-2.13l-.09-.29-.07-.28c0-.2-.09-.39-.12-.58a9.12,9.12,0,0,1-.11-1.15v-.56l0-.53c0-.37.08-.7.13-1,0-.09,0-.16,0-.27s.07-.27.1-.4a4.47,4.47,0,0,1,.29-.82l.09-.2.11-.21c.07-.13.15-.26.23-.39a6.44,6.44,0,0,1,.57-.7l.31-.3.17-.14.16-.12.33-.24.33-.19.32-.17.31-.13.32-.12.29-.1A9,9,0,0,1,279.07,128.1Z" style="fill:#fff"></path><path d="M203,145.7a9.18,9.18,0,0,1,.12,1.79,12,12,0,0,1-.56,3.22,19.71,19.71,0,0,1-1.07,3,13.78,13.78,0,0,1-1.66,2.71,13.05,13.05,0,0,1-2.38,2.31,8.08,8.08,0,0,1-3.37,1.34,7.33,7.33,0,0,1-1.93,0,6.27,6.27,0,0,1-1.81-.48,6.14,6.14,0,0,1-1.41-.88,12.13,12.13,0,0,1-1.1-1,4.81,4.81,0,0,1-.47-.62,4,4,0,0,1-.34-.73,7.51,7.51,0,0,1-.36-1.59,13.26,13.26,0,0,1,0-3.39,7.42,7.42,0,0,1,3.14-5.32,12.75,12.75,0,0,1,2.79-1.45c1-.39,1.93-.76,2.83-1.19a24.19,24.19,0,0,1,2.88-1.24,4.77,4.77,0,0,1,.9-.19,3.52,3.52,0,0,1,1.07,0,2.81,2.81,0,0,1,1.29.62,3.52,3.52,0,0,1,.48.53,2.86,2.86,0,0,1,.34.54,3.17,3.17,0,0,1,.25.53c.06.17.13.35.18.51l.07.25.06.24C202.91,145.38,202.94,145.54,203,145.7Z" style="fill:#fff"></path></g><polygon points="294.36 145.29 295.5 145.5 295.76 146.7 296.01 145.5 297.15 145.29 296.02 145.01 295.76 143.87 295.5 145.01 294.36 145.29" style="fill:#fff"></polygon><polygon points="203.48 167.03 204.62 167.24 204.87 168.44 205.13 167.24 206.26 167.03 205.13 166.75 204.87 165.62 204.61 166.75 203.48 167.03" style="fill:#fff"></polygon><polygon points="285.67 175.13 286.81 175.34 287.07 176.54 287.32 175.34 288.46 175.13 287.33 174.85 287.07 173.71 286.81 174.85 285.67 175.13" style="fill:#fff"></polygon><polygon points="305.2 138.22 305.83 138.33 305.98 139 306.12 138.33 306.75 138.22 306.12 138.06 305.98 137.43 305.83 138.06 305.2 138.22" style="fill:#fff"></polygon><polygon points="289.97 198.68 290.61 198.79 290.75 199.47 290.9 198.79 291.53 198.68 290.9 198.52 290.75 197.89 290.61 198.52 289.97 198.68" style="fill:#fff"></polygon><polygon points="272.8 143.94 273.43 144.06 273.57 144.73 273.72 144.06 274.35 143.94 273.72 143.79 273.57 143.16 273.43 143.79 272.8 143.94" style="fill:#fff"></polygon><polygon points="186.89 167.03 187.53 167.15 187.67 167.82 187.81 167.15 188.45 167.03 187.82 166.88 187.67 166.24 187.53 166.88 186.89 167.03" style="fill:#fff"></polygon><polygon points="306.65 146.92 307.28 147.04 307.43 147.71 307.57 147.04 308.21 146.92 307.57 146.77 307.43 146.13 307.28 146.77 306.65 146.92" style="fill:#fff"></polygon><polygon points="253.83 171.18 254.47 171.29 254.61 171.97 254.76 171.29 255.39 171.18 254.76 171.02 254.61 170.39 254.47 171.02 253.83 171.18" style="fill:#fff"></polygon><polygon points="228.77 196.77 229.41 196.89 229.55 197.56 229.69 196.89 230.33 196.77 229.7 196.62 229.55 195.98 229.41 196.62 228.77 196.77" style="fill:#fff"></polygon><polygon points="209.52 137.38 210.16 137.5 210.3 138.17 210.45 137.5 211.08 137.38 210.45 137.23 210.3 136.59 210.16 137.23 209.52 137.38" style="fill:#fff"></polygon><polygon points="305.98 173.66 306.61 173.78 306.75 174.45 306.9 173.78 307.53 173.66 306.9 173.5 306.75 172.87 306.61 173.5 305.98 173.66" style="fill:#fff"></polygon><path d="M288.47,200.13a.19.19,0,0,1,0,.37A.19.19,0,0,1,288.47,200.13Z" style="fill:#fff"></path><path d="M291.24,179.75a.19.19,0,0,1,0,.37A.19.19,0,0,1,291.24,179.75Z" style="fill:#fff"></path><path d="M230.93,190.74a.19.19,0,0,1,0,.37A.19.19,0,0,1,230.93,190.74Z" style="fill:#fff"></path><path d="M278.27,198.74a.19.19,0,0,1,0,.37A.19.19,0,0,1,278.27,198.74Z" style="fill:#fff"></path><path d="M299.2,157.34a.19.19,0,0,1,0,.37A.19.19,0,0,1,299.2,157.34Z" style="fill:#fff"></path><path d="M297.08,133a.19.19,0,0,1,0,.37A.19.19,0,0,1,297.08,133Z" style="fill:#fff"></path><path d="M293.09,196.81a.13.13,0,0,1,0,.26A.13.13,0,0,1,293.09,196.81Z" style="fill:#fff"></path><path d="M192.29,138.68a.13.13,0,0,1,0,.26A.13.13,0,0,1,192.29,138.68Z" style="fill:#fff"></path><path d="M242.66,180.65a.14.14,0,0,1,0,.27A.14.14,0,0,1,242.66,180.65Z" style="fill:#fff"></path><path d="M232.42,197.43a.13.13,0,0,1,0,.26A.13.13,0,0,1,232.42,197.43Z" style="fill:#fff"></path><path d="M226,189.75a.13.13,0,0,1,0,.26A.13.13,0,0,1,226,189.75Z" style="fill:#fff"></path><path d="M282.79,182.85a.36.36,0,0,1,0,.71A.36.36,0,0,1,282.79,182.85Z" style="fill:#fff"></path><polygon points="220.12 142.53 221.25 142.74 221.51 143.94 221.76 142.74 222.9 142.53 221.77 142.25 221.51 141.12 221.25 142.25 220.12 142.53" style="fill:#fff"></polygon><polygon points="224.46 132.13 225.09 132.25 225.24 132.92 225.38 132.25 226.02 132.13 225.38 131.98 225.24 131.34 225.09 131.98 224.46 132.13" style="fill:#fff"></polygon><path d="M185.85,149.37a.19.19,0,0,1,0,.37A.19.19,0,0,1,185.85,149.37Z" style="fill:#fff"></path><path d="M188.75,198.33a.19.19,0,0,1,0,.37A.19.19,0,0,1,188.75,198.33Z" style="fill:#fff"></path><path d="M258.47,197.81a.19.19,0,0,1,0,.37A.19.19,0,0,1,258.47,197.81Z" style="fill:#fff"></path><path d="M193.2,164.84a.19.19,0,0,1,0,.37A.19.19,0,0,1,193.2,164.84Z" style="fill:#fff"></path><path d="M183.75,133a.18.18,0,0,1,0,.36A.18.18,0,0,1,183.75,133Z" style="fill:#fff"></path><path d="M200.51,189.53a.13.13,0,0,1,0,.26A.13.13,0,0,1,200.51,189.53Z" style="fill:#fff"></path><path d="M302.78,196.59a.13.13,0,0,1,0,.26A.13.13,0,0,1,302.78,196.59Z" style="fill:#fff"></path><path d="M247.46,146.52a.13.13,0,0,1,0,.26A.13.13,0,0,1,247.46,146.52Z" style="fill:#fff"></path><path d="M223.86,138.52a.13.13,0,0,1,0,.26A.13.13,0,0,1,223.86,138.52Z" style="fill:#fff"></path><path d="M216,184.89a.36.36,0,0,1,0,.71A.36.36,0,0,1,216,184.89Z" style="fill:#fff"></path><path d="M262.65,158.15a.36.36,0,0,1,0,.71A.36.36,0,0,1,262.65,158.15Z" style="fill:#fff"></path><path d="M294.36,165.27a.35.35,0,0,1,0,.7A.35.35,0,0,1,294.36,165.27Z" style="fill:#fff"></path><polygon points="219.95 175.56 220.59 175.67 220.73 176.34 220.87 175.67 221.51 175.56 220.88 175.4 220.73 174.77 220.59 175.4 219.95 175.56" style="fill:#fff"></polygon><polygon points="308.21 197.99 308.84 198.11 308.99 198.78 309.13 198.11 309.76 197.99 309.13 197.84 308.99 197.2 308.84 197.84 308.21 197.99" style="fill:#fff"></polygon><path d="M311,189.72a.19.19,0,0,1,0,.37A.19.19,0,0,1,311,189.72Z" style="fill:#fff"></path><path d="M239.57,200a.19.19,0,0,1,0,.37A.19.19,0,0,1,239.57,200Z" style="fill:#fff"></path><polygon points="272.02 183.99 272.65 184.11 272.8 184.78 272.94 184.11 273.57 183.99 272.94 183.84 272.8 183.2 272.65 183.84 272.02 183.99" style="fill:#fff"></polygon><path d="M247,143.51a.19.19,0,0,1,0,.37A.19.19,0,0,1,247,143.51Z" style="fill:#fff"></path><path d="M251.39,195.08a.13.13,0,0,1,0,.26A.13.13,0,0,1,251.39,195.08Z" style="fill:#fff"></path><polygon points="195.81 172.87 196.45 172.99 196.59 173.66 196.74 172.99 197.37 172.87 196.74 172.71 196.59 172.08 196.45 172.71 195.81 172.87" style="fill:#fff"></polygon><path d="M188.45,183a.19.19,0,0,1,0,.37A.19.19,0,0,1,188.45,183Z" style="fill:#fff"></path><path d="M213.92,169.43a.19.19,0,0,1,0,.37A.19.19,0,0,1,213.92,169.43Z" style="fill:#fff"></path><path d="M192.29,150.78a.13.13,0,0,1,0,.26A.13.13,0,0,1,192.29,150.78Z" style="fill:#fff"></path><path d="M190.61,149.58a.36.36,0,0,1,0,.71A.36.36,0,0,1,190.61,149.58Z" style="fill:#fff"></path><path d="M263,134a.36.36,0,0,1,0,.71A.36.36,0,0,1,263,134Z" style="fill:#fff"></path><rect x="191.13" y="130.6" width="40.38" height="3.64" style="fill:#fff"></rect><rect x="191.86" y="131.21" width="26.39" height="2.48" style="fill:#EEBEFA"></rect><path d="M188.89,132.63a6.73,6.73,0,0,1-1.87,1.89,6.75,6.75,0,0,1-1.86-1.89c-.62-1.14-.28-2.3.61-2.3s1.25,1.24,1.25,1.24.26-1.24,1.25-1.24S189.51,131.49,188.89,132.63Z" style="fill:#EEBEFA"></path><path d="M206.91,131.84l-.53,1.26a.11.11,0,0,1-.11.07h0a.11.11,0,0,1-.06-.15l.45-1.09h-.54a.12.12,0,0,1-.12-.12.12.12,0,0,1,.12-.12h.75l0,0h0v.08Z" style="fill:#fff"></path><path d="M208.18,132.66a.51.51,0,1,1-1,0,.5.5,0,0,1,.23-.42.38.38,0,0,1-.07-.21.35.35,0,0,1,.7,0,.31.31,0,0,1-.07.21A.5.5,0,0,1,208.18,132.66Zm-.23,0a.28.28,0,0,0-.28-.27.27.27,0,0,0-.27.27.28.28,0,0,0,.27.28A.29.29,0,0,0,208,132.66Zm-.4-.63a.12.12,0,0,0,.12.12.12.12,0,0,0,.12-.12.12.12,0,0,0-.12-.12A.13.13,0,0,0,207.55,132Z" style="fill:#fff"></path><path d="M209.33,132.27a.51.51,0,0,1,.15.37.53.53,0,0,1-.15.37.55.55,0,0,1-.38.15.53.53,0,0,1-.37-.15.12.12,0,0,1,.17-.17.27.27,0,0,0,.2.08.28.28,0,0,0,.21-.08.32.32,0,0,0,.08-.2.27.27,0,0,0-.29-.29.09.09,0,0,1-.08,0h0a.14.14,0,0,1,0-.17l.22-.22h-.35a.12.12,0,0,1,0-.24h.63a.12.12,0,0,1,.12.12s0,0,0,.06l0,0-.26.27A.72.72,0,0,1,209.33,132.27Z" style="fill:#fff"></path><path d="M210.49,133l.52-1.24a.12.12,0,0,1,.16-.06.12.12,0,0,1,.06.15l-.52,1.24a.14.14,0,0,1-.11.07h0A.12.12,0,0,1,210.49,133Z" style="fill:#fff"></path><path d="M212.42,131.8v1.25a.12.12,0,0,1-.12.12.11.11,0,0,1-.11-.12v-1l-.09,0a.07.07,0,0,1-.06,0,.11.11,0,0,1-.1-.06.13.13,0,0,1,0-.16l.26-.15h.18Z" style="fill:#fff"></path><path d="M213.65,133.05a.12.12,0,0,1-.12.12h-.75a.15.15,0,0,1-.09,0,.12.12,0,0,1,0-.17l.63-.57a.24.24,0,0,0,.08-.2.24.24,0,0,0-.07-.18.24.24,0,0,0-.2-.09.24.24,0,0,0-.18.07l-.07.06a.12.12,0,0,1-.16-.18l.07-.06a.48.48,0,0,1,.34-.13.52.52,0,0,1,.38.17.48.48,0,0,1,.13.34.52.52,0,0,1-.17.38l-.4.36h.45A.12.12,0,0,1,213.65,133.05Z" style="fill:#fff"></path><path d="M213.94,132.42a.82.82,0,0,1,.15-.5.45.45,0,0,1,.39-.24.48.48,0,0,1,.39.24.89.89,0,0,1,.14.5.9.9,0,0,1-.14.51.5.5,0,0,1-.39.24.47.47,0,0,1-.39-.24A.83.83,0,0,1,213.94,132.42Zm.84,0a.67.67,0,0,0-.1-.37c-.06-.09-.13-.14-.2-.13s-.14,0-.2.13a.67.67,0,0,0-.1.37.71.71,0,0,0,.1.38.22.22,0,0,0,.4,0A.71.71,0,0,0,214.78,132.42Z" style="fill:#fff"></path><path d="M215.45,132.42a.89.89,0,0,1,.14-.5.45.45,0,0,1,.79,0,.89.89,0,0,1,.14.5.9.9,0,0,1-.14.51.45.45,0,0,1-.79,0A.9.9,0,0,1,215.45,132.42Zm.83,0a.67.67,0,0,0-.1-.37c-.06-.09-.13-.14-.19-.13s-.14,0-.21.13a.67.67,0,0,0-.1.37.71.71,0,0,0,.1.38.28.28,0,0,0,.21.13.25.25,0,0,0,.19-.13A.71.71,0,0,0,216.28,132.42Z" style="fill:#fff"></path><path d="M248.21,187.92a22.24,22.24,0,1,1,22.24-22.23A22.26,22.26,0,0,1,248.21,187.92Zm0-44.22a22,22,0,1,0,22,22A22,22,0,0,0,248.21,143.7Z" style="fill:#fff"></path><path d="M248.21,183.66a18,18,0,1,1,18-18A18,18,0,0,1,248.21,183.66Zm0-35.7a17.73,17.73,0,1,0,17.73,17.73A17.75,17.75,0,0,0,248.21,148Z" style="fill:#fff"></path><rect x="223.79" y="165.56" width="48.85" height="0.25" style="fill:#fff"></rect><rect x="248.09" y="141.26" width="0.25" height="48.85" style="fill:#fff"></rect><path d="M190,188.09l.52-1.84a1,1,0,0,0-.68-1.23h0a1,1,0,0,0-1.23.69l-.52,1.84a1,1,0,0,0,.68,1.23h0A1,1,0,0,0,190,188.09Z" style="fill:#ebebeb"></path><path d="M212.66,190.82l-.08-1.92a1,1,0,0,0-1-.94h0a1,1,0,0,0-.95,1l.08,1.91a1,1,0,0,0,1,.95h0A1,1,0,0,0,212.66,190.82Z" style="fill:#ebebeb"></path><path d="M193.91,181.52l.82-.62a1,1,0,0,0,.18-1.39h0a1,1,0,0,0-1.39-.19l-.82.62a1,1,0,0,0-.19,1.39h0A1,1,0,0,0,193.91,181.52Z" style="fill:#ebebeb"></path><path d="M193.39,197.19l-.63-.81a1,1,0,0,0-1.39-.19h0a1,1,0,0,0-.19,1.39l.63.82a1,1,0,0,0,1.39.19h0A1,1,0,0,0,193.39,197.19Z" style="fill:#ebebeb"></path><rect x="208.79" y="183.73" width="3.01" height="1.99" rx="0.94" transform="translate(269.34 -88.89) rotate(60.88)" style="fill:#ebebeb"></rect><path d="M203,201.7l1-.25a1,1,0,0,0,.73-1.21h0a1,1,0,0,0-1.21-.72l-1,.25a1,1,0,0,0-.72,1.21h0A1,1,0,0,0,203,201.7Z" style="fill:#ebebeb"></path><path d="M197.2,200.8a11.45,11.45,0,1,0-7.88-14.15A11.46,11.46,0,0,0,197.2,200.8Z" style="fill:#ebebeb"></path><path d="M200.67,181.82a2.57,2.57,0,0,1,.39,1.56,3.16,3.16,0,0,1-.55,1.57,2.3,2.3,0,0,1-1.4.94,2.36,2.36,0,0,1-1.6-.23,3.5,3.5,0,0,0,1.49-.14,2,2,0,0,0,.62-.34,2.38,2.38,0,0,0,.48-.52l.19-.3c.05-.11.12-.22.16-.33a3.35,3.35,0,0,0,.22-.7A3.84,3.84,0,0,0,200.67,181.82Z" style="fill:#37474f"></path><path d="M197.39,184.4a1.67,1.67,0,0,1-.32-1.07,2.07,2.07,0,0,1,.37-1.11,1.6,1.6,0,0,1,1-.66,1.52,1.52,0,0,1,1.11.23,2.45,2.45,0,0,0-1,.15,1.51,1.51,0,0,0-.7.57A2.73,2.73,0,0,0,197.39,184.4Z" style="fill:#37474f"></path><path d="M197.83,193.16a1.55,1.55,0,0,1,.56.94,1.91,1.91,0,0,1-.13,1.13,1.49,1.49,0,0,1-1.93.82,2.72,2.72,0,0,0,.92-.35,1.51,1.51,0,0,0,.56-.67,2.26,2.26,0,0,0,.19-.89A2.7,2.7,0,0,0,197.83,193.16Z" style="fill:#37474f"></path><path d="M196.39,195.45a1,1,0,0,1-.44-.63A1.32,1.32,0,0,1,196,194a1.06,1.06,0,0,1,.61-.58,1,1,0,0,1,.78,0,2.24,2.24,0,0,0-.6.3,1,1,0,0,0-.33.43A2,2,0,0,0,196.39,195.45Z" style="fill:#37474f"></path><path d="M193,192.93a1,1,0,0,1,.65.49,1.12,1.12,0,0,1,.11.86,1,1,0,0,1-.59.66,1.17,1.17,0,0,1-.8.05,3.67,3.67,0,0,0,.6-.39.94.94,0,0,0,.31-.45,1.26,1.26,0,0,0,0-.58A2.37,2.37,0,0,0,193,192.93Z" style="fill:#37474f"></path><path d="M192.31,194.6a.68.68,0,0,1-.5-.31.73.73,0,0,1-.09-.63.67.67,0,0,1,.44-.48.73.73,0,0,1,.58,0c-.15.12-.28.21-.38.31a.63.63,0,0,0-.16.28,1,1,0,0,0,0,.35A1.46,1.46,0,0,0,192.31,194.6Z" style="fill:#37474f"></path><path d="M205.07,182.33a1.07,1.07,0,0,1,.16.79,1.14,1.14,0,0,1-.5.72,1,1,0,0,1-.88.1,1.26,1.26,0,0,1-.63-.5,3.33,3.33,0,0,0,.71.11.82.82,0,0,0,.53-.13,1.08,1.08,0,0,0,.39-.43A2,2,0,0,0,205.07,182.33Z" style="fill:#37474f"></path><path d="M203.44,183.11a.66.66,0,0,1-.17-.56.81.81,0,0,1,.35-.54.74.74,0,0,1,.66-.06.73.73,0,0,1,.41.4,2.75,2.75,0,0,0-.49,0,.63.63,0,0,0-.31.09,1,1,0,0,0-.25.25A1.58,1.58,0,0,0,203.44,183.11Z" style="fill:#37474f"></path><path d="M203.24,192.25a2.54,2.54,0,1,0-2.74-2.3A2.52,2.52,0,0,0,203.24,192.25Z" style="fill:#dbdbdb"></path><path d="M203.47,188.11a2.29,2.29,0,0,1,1.93.77,2.53,2.53,0,1,0-3.26,3.22,2.29,2.29,0,0,1,1.33-4Z" style="fill:#37474f"></path><path d="M206.28,188.39a3.3,3.3,0,0,1,.44,1.93,3.88,3.88,0,0,1-.69,1.91,2.78,2.78,0,0,1-1.69,1.15,2.92,2.92,0,0,1-2-.25,4,4,0,0,0,1.86-.12c.14,0,.27-.12.41-.18a1.78,1.78,0,0,0,.36-.25,2.86,2.86,0,0,0,.61-.64,3,3,0,0,0,.24-.38,3.86,3.86,0,0,0,.2-.41,4.48,4.48,0,0,0,.27-.88A4.6,4.6,0,0,0,206.28,188.39Z" style="fill:#37474f"></path><path d="M209.17,187.89a1,1,0,0,0,.65-1.17.94.94,0,1,0-.65,1.17Z" style="fill:#dbdbdb"></path><path d="M209,186.35a.84.84,0,0,1,.76.15.92.92,0,0,0-1.07-.43.95.95,0,0,0,.11,1.84.84.84,0,0,1-.38-.5A.86.86,0,0,1,209,186.35Z" style="fill:#37474f"></path><path d="M210,186.26a1.09,1.09,0,0,1,.32.67,1.33,1.33,0,0,1-.11.76,1,1,0,0,1-.55.55,1.08,1.08,0,0,1-.75,0,1.59,1.59,0,0,0,.66-.2,1,1,0,0,0,.41-.48A1.66,1.66,0,0,0,210,186.26Z" style="fill:#37474f"></path><path d="M206.48,196.41a1.35,1.35,0,1,0-1.79-.63A1.34,1.34,0,0,0,206.48,196.41Z" style="fill:#dbdbdb"></path><path d="M205.81,194.31a1.19,1.19,0,0,1,1.1,0,1.34,1.34,0,1,0-1,2.21,1.21,1.21,0,0,1-.66-.6A1.22,1.22,0,0,1,205.81,194.31Z" style="fill:#37474f"></path><path d="M207.25,193.92a1.68,1.68,0,0,1,.58.87,2.15,2.15,0,0,1,0,1.07,1.45,1.45,0,0,1-.62.89,1.59,1.59,0,0,1-1,.25,1.91,1.91,0,0,0,.9-.41,1.46,1.46,0,0,0,.49-.79,2.22,2.22,0,0,0,0-1A2.33,2.33,0,0,0,207.25,193.92Z" style="fill:#37474f"></path><path d="M194.93,188a2.28,2.28,0,1,1-2.12-2.16A2.15,2.15,0,0,1,194.93,188Z" style="fill:#dbdbdb"></path><path d="M191.24,188.2a1.77,1.77,0,0,0,.73,1.53,2.08,2.08,0,0,1-1.56-2.06,2.15,2.15,0,0,1,2.4-1.84,2.28,2.28,0,0,1,2,1.28,2.17,2.17,0,0,0-1.35-.58A2,2,0,0,0,191.24,188.2Z" style="fill:#37474f"></path><path d="M194.83,186.29a2.14,2.14,0,0,1,1,1.28,2,2,0,0,1,.07.89,2.38,2.38,0,0,1-.28.84,2.24,2.24,0,0,1-.6.66,2.57,2.57,0,0,1-.77.4,3.54,3.54,0,0,1-1.64.17,6.91,6.91,0,0,0,1.49-.53,2.54,2.54,0,0,0,1.09-.95,2.14,2.14,0,0,0,.24-.67,1.94,1.94,0,0,0,0-.72A2.82,2.82,0,0,0,194.83,186.29Z" style="fill:#37474f"></path><rect x="180.28" y="123.84" width="135.58" height="3.06" style="fill:#455a64"></rect><path d="M182.52,125.37a.52.52,0,1,1-.51-.51A.51.51,0,0,1,182.52,125.37Z" style="fill:#37474f"></path><path d="M184.64,125.37a.52.52,0,0,1-.52.52.52.52,0,1,1,.52-.52Z" style="fill:#fff"></path><path d="M186.75,125.37a.52.52,0,0,1-.52.52.52.52,0,1,1,.52-.52Z" style="fill:#EEBEFA"></path><path d="M306.27,144.61a8.19,8.19,0,1,1-4.13-10.82A8.2,8.2,0,0,1,306.27,144.61Z" style="fill:#EEBEFA"></path><path d="M302.14,133.79a8.19,8.19,0,1,0,4.13,10.82A8.18,8.18,0,0,0,302.14,133.79Zm3.19,9.74a7.39,7.39,0,1,1-3.72-9.77A7.39,7.39,0,0,1,305.33,143.53Z" style="opacity:0.1"></path><g style="opacity:0.1"><path d="M306.63,143.64a9.69,9.69,0,0,0-2.56-1.59c-1.62-.72-6-1.5-8.08-2.53-2.87-1.45-3.23-3-3.22-3.82a8.46,8.46,0,0,1,2.53-1.85c.21.83,1,3.41,5.75,5.1a9.84,9.84,0,0,0,5.63.09A8.19,8.19,0,0,1,306.63,143.64Z"></path><path d="M303.29,148.11a8.21,8.21,0,0,1-7.85.63,8.32,8.32,0,0,1-2.42-1.66,6.33,6.33,0,0,1,1.47-.59,8.43,8.43,0,0,1,5.51,1A4.87,4.87,0,0,0,303.29,148.11Z"></path><path d="M306.14,144.87a1.24,1.24,0,0,1-.1.2l-.09.18a3.68,3.68,0,0,1-.24.39,4,4,0,0,1-.22.34l-.09.13-.1.13-.11.14-.13.15a1,1,0,0,1-.13.16l-.11.12-.26.28h0a3.4,3.4,0,0,1-2.19-.31c-1.49-.58-3.09-2-6-3a10.09,10.09,0,0,0-5.5-.35h0a8.16,8.16,0,0,1,.22-4.95c.52,0,2.2.22,5.79,3.18a21.27,21.27,0,0,0,3.62,2.47c3.07,1.61,4.84,1.13,5.58.76h.05Z"></path></g><g style="opacity:0.1"><path d="M298.36,148c.14-.34.65-.44,1.14-.22s.76.65.61,1-.65.43-1.14.22S298.21,148.29,298.36,148Z"></path><path d="M300.68,147.37c.08-.18.38-.23.67-.11s.46.39.38.57-.38.24-.67.11S300.59,147.56,300.68,147.37Z"></path><path d="M294.32,137.31c.13-.28.57-.36,1-.18s.66.57.54.85-.57.37-1,.18S294.2,137.6,294.32,137.31Z"></path><path d="M295.83,137a.37.37,0,0,1,.48-.12.37.37,0,0,1,.25.44.37.37,0,0,1-.49.11A.36.36,0,0,1,295.83,137Z"></path><path d="M296.08,137.79c0-.09.17-.12.3-.06s.2.17.16.26a.24.24,0,0,1-.31.07C296.11,138,296,137.88,296.08,137.79Z"></path><path d="M301.19,137.81a.6.6,0,0,1,.81-.19.52.52,0,1,1-.4.92A.6.6,0,0,1,301.19,137.81Z"></path><path d="M301,138.93a.32.32,0,1,1,.18.39A.31.31,0,0,1,301,138.93Z"></path></g><rect x="325.54" y="117.73" width="108.34" height="94.07" style="fill:#37474f"></rect><rect x="433.88" y="117.73" width="5.14" height="94.07" style="fill:#263238"></rect><rect x="331.92" y="123.84" width="95.58" height="81.33" style="fill:#263238"></rect><rect x="331.92" y="123.84" width="95.58" height="3.06" style="fill:#455a64"></rect><path d="M334.17,125.37a.52.52,0,1,1-.52-.51A.52.52,0,0,1,334.17,125.37Z" style="fill:#37474f"></path><path d="M336.28,125.37a.52.52,0,1,1-.52-.51A.52.52,0,0,1,336.28,125.37Z" style="fill:#fff"></path><path d="M338.39,125.37a.52.52,0,0,1-.52.52.52.52,0,1,1,0-1A.51.51,0,0,1,338.39,125.37Z" style="fill:#EEBEFA"></path><rect x="338.96" y="164.87" width="3.89" height="1.17" style="fill:#ebebeb"></rect><rect x="345.67" y="164.87" width="44.57" height="1.17" style="fill:#ebebeb"></rect><rect x="392.63" y="164.87" width="7.38" height="1.17" style="fill:#EEBEFA"></rect><rect x="409.51" y="180.58" width="7.38" height="1.17" style="fill:#ebebeb"></rect><rect x="401.61" y="164.87" width="12.76" height="1.17" style="fill:#a6a6a6"></rect><rect x="342.84" y="168.02" width="3.89" height="1.17" style="fill:#ebebeb"></rect><rect x="349.46" y="168.02" width="29.25" height="1.17" style="fill:#a6a6a6"></rect><rect x="390.63" y="180.58" width="17.12" height="1.17" style="fill:#a6a6a6"></rect><rect x="345.67" y="177.44" width="27.94" height="1.17" style="fill:#a6a6a6"></rect><rect x="349.46" y="171.16" width="19.6" height="1.17" style="fill:#EEBEFA"></rect><rect x="397.56" y="174.3" width="7.48" height="1.17" style="fill:#a6a6a6"></rect><rect x="371.23" y="171.16" width="31.3" height="1.17" style="fill:#a6a6a6"></rect><rect x="345.67" y="180.58" width="37.36" height="1.17" style="fill:#EEBEFA"></rect><rect x="400.79" y="168.02" width="20.25" height="1.17" style="fill:#EEBEFA"></rect><rect x="380.55" y="168.02" width="18.64" height="1.17" style="fill:#ebebeb"></rect><rect x="404" y="171.16" width="12.58" height="1.17" style="fill:#ebebeb"></rect><rect x="342.84" y="171.16" width="3.89" height="1.17" style="fill:#ebebeb"></rect><rect x="338.96" y="174.3" width="3.89" height="1.17" style="fill:#a6a6a6"></rect><rect x="345.67" y="174.3" width="22.96" height="1.17" style="fill:#ebebeb"></rect><rect x="349.46" y="183.73" width="22.96" height="1.17" style="fill:#ebebeb"></rect><rect x="392.28" y="186.87" width="17.46" height="1.17" style="fill:#EEBEFA"></rect><rect x="374.29" y="183.73" width="23.03" height="1.17" style="fill:#EEBEFA"></rect><rect x="370.23" y="186.87" width="20.04" height="1.17" style="fill:#ebebeb"></rect><rect x="349.46" y="186.87" width="6.65" height="1.17" style="fill:#a6a6a6"></rect><rect x="375.19" y="177.44" width="24.82" height="1.17" style="fill:#ebebeb"></rect><rect x="401.61" y="177.44" width="15.79" height="1.17" style="fill:#EEBEFA"></rect><rect x="370.97" y="174.3" width="24.79" height="1.17" style="fill:#EEBEFA"></rect><rect x="338.96" y="177.44" width="3.89" height="1.17" style="fill:#ebebeb"></rect><rect x="338.96" y="180.58" width="3.89" height="1.17" style="fill:#ebebeb"></rect><rect x="342.84" y="183.73" width="3.89" height="1.17" style="fill:#a6a6a6"></rect><rect x="342.84" y="186.87" width="3.89" height="1.17" style="fill:#ebebeb"></rect><rect x="338.96" y="189.5" width="3.89" height="1.17" style="fill:#ebebeb"></rect><rect x="345.67" y="189.5" width="44.57" height="1.17" style="fill:#ebebeb"></rect><rect x="342.84" y="192.64" width="3.89" height="1.17" style="fill:#ebebeb"></rect><rect x="349.46" y="192.64" width="29.25" height="1.17" style="fill:#a6a6a6"></rect><rect x="349.46" y="195.78" width="19.6" height="1.17" style="fill:#EEBEFA"></rect><rect x="371.23" y="195.78" width="31.3" height="1.17" style="fill:#a6a6a6"></rect><rect x="400.79" y="192.64" width="20.25" height="1.17" style="fill:#EEBEFA"></rect><rect x="380.55" y="192.64" width="18.64" height="1.17" style="fill:#ebebeb"></rect><rect x="404" y="195.78" width="12.58" height="1.17" style="fill:#ebebeb"></rect><rect x="342.84" y="195.78" width="3.89" height="1.17" style="fill:#ebebeb"></rect><rect x="370.12" y="133.17" width="6.11" height="1.17" style="fill:#EEBEFA"></rect><rect x="370.12" y="148.88" width="6.11" height="1.17" style="fill:#ebebeb"></rect><rect x="377.91" y="133.17" width="10.55" height="1.17" style="fill:#a6a6a6"></rect><rect x="370.12" y="148.88" width="14.17" height="1.17" style="fill:#a6a6a6"></rect><rect x="370.12" y="142.6" width="6.18" height="1.17" style="fill:#a6a6a6"></rect><rect x="382.05" y="139.45" width="25.89" height="1.17" style="fill:#a6a6a6"></rect><rect x="387.69" y="136.31" width="16.75" height="1.17" style="fill:#EEBEFA"></rect><rect x="370.12" y="136.31" width="15.42" height="1.17" style="fill:#ebebeb"></rect><rect x="370.12" y="139.45" width="10.41" height="1.17" style="fill:#ebebeb"></rect><rect x="370.12" y="152.02" width="19.05" height="1.17" style="fill:#EEBEFA"></rect><rect x="385.01" y="145.74" width="20.53" height="1.17" style="fill:#ebebeb"></rect><rect x="370.12" y="145.74" width="13.06" height="1.17" style="fill:#EEBEFA"></rect><rect x="370.12" y="142.6" width="20.51" height="1.17" style="fill:#EEBEFA"></rect><rect x="338.94" y="133.17" width="27.69" height="27.69" style="fill:#455a64"></rect><path d="M359.75,142.27a6.73,6.73,0,1,1-6.65-6.81A6.72,6.72,0,0,1,359.75,142.27Z" style="fill:#fff"></path><path d="M364.43,160.86H341.17v-.24a11.63,11.63,0,0,1,23.26.24Z" style="fill:#fff"></path><polygon points="416.44 237.05 351.22 237.05 351.22 232.54 415.72 232.54 416.44 237.05" style="fill:#263238"></polygon><rect x="351.22" y="232.55" width="52.38" height="4.51" style="fill:#37474f"></rect><polygon points="412.72 232.55 374.64 232.55 372.91 211.8 406.45 211.8 412.72 232.55" style="fill:#263238"></polygon><polygon points="407.02 232.55 368.94 232.55 367.21 211.8 400.75 211.8 407.02 232.55" style="fill:#37474f"></polygon><polygon points="403.29 220.22 367.77 218.54 367.21 211.8 400.75 211.8 403.29 220.22" style="fill:#263238"></polygon><polygon points="274.58 237.05 179.64 237.05 179.64 230.49 273.54 230.49 274.58 237.05" style="fill:#263238"></polygon><rect x="179.64" y="230.49" width="76.24" height="6.56" style="fill:#37474f"></rect><path d="M275.63,237.05h45.89s-6.44-6.44-12.73-8.86-15.71-2.9-21-1.48S275.63,237.05,275.63,237.05Z" style="fill:#37474f"></path></g><g id="freepik--Character--inject-17"><path d="M155.36,173.4c1.34,20.48,4,61.25,15.52,67.94,6.72,3.91,48.16-4.64,50-4.43,4.58.49,6.18-32.76,1.46-34.18-1.12-.33-35.36,6.46-37,4.78S177.9,186,169.12,166.12C163.51,153.46,154.3,157.27,155.36,173.4Z" style="fill:#ffc4c0"></path><path d="M216.08,235.59a106.63,106.63,0,0,0,13.73,3.16c3.67.43,14.3,1.4,15.18-2.6.61-2.73-5.57-4-9.92-5.06-2.29-.54-5.31-2.34-4.9-3.82.7-2.6,6.62-1.09,10.6.42,7.69,2.91,18.26,8.71,22,4.44,1.4-1.62-.89-3.76-4-5.7,4.93,2.06,10.08,3.56,11.7,1.83.93-1,.8-2.11,0-3.28a3.17,3.17,0,0,0,3.36-1.11c1.2-1.76.12-3.88-1.85-5.92a1.77,1.77,0,0,0,1.18-1.08c2.3-5.2-15.32-16.11-20.85-16.49-16.27-1.13-32.71,3-32.71,3C214.17,209.3,216.06,235.59,216.08,235.59Z" style="fill:#ffc4c0"></path><path d="M237,217.2a25.93,25.93,0,0,1,11.11,2.3c4.07,1.9,7.54,4.85,11.38,7.13.11.06,0,.22-.1.15-1.83-1.2-3.79-2.22-5.67-3.36s-3.65-2.27-5.55-3.24A25.52,25.52,0,0,0,237,217.27C236.91,217.27,236.92,217.2,237,217.2Z" style="fill:#263238"></path><path d="M238.78,210.08a64.32,64.32,0,0,1,12.85,2.19c4.53,1.44,8.37,4.37,12.14,7.18q3.41,2.53,6.68,5.21c.09.08,0,.24-.1.16q-5.76-4.37-11.76-8.38a33.86,33.86,0,0,0-12.24-5.15c-2.51-.51-5-.82-7.58-1.14C238.73,210.15,238.73,210.07,238.78,210.08Z" style="fill:#263238"></path><path d="M242.21,203.54c4.14.16,7.74.28,11.64,1.84,5.15,2.06,10.47,6.09,12.34,7.52,2.06,1.58,4.07,3.23,6.05,4.91.08.07,0,.21-.12.14a136.77,136.77,0,0,0-14.19-10.06,26.82,26.82,0,0,0-7.56-3.3,47.54,47.54,0,0,0-8.16-1A0,0,0,0,1,242.21,203.54Z" style="fill:#263238"></path><path d="M273.73,223.87a3.17,3.17,0,0,1-3.36,1.11c.81,1.17.94,2.3,0,3.28-1.62,1.73-6.77.23-11.7-1.84,3.15,2,5.44,4.09,4,5.71-3.69,4.27-14.26-1.53-22-4.44-4-1.51-9.9-3-10.6-.42-.41,1.48,2.61,3.28,4.9,3.82,4.35,1,10.53,2.33,9.92,5.06-.88,4-11.51,3-15.18,2.6a77.45,77.45,0,0,1-8.92-1.84h0c-2-.18-43.29,8.33-50,4.43-6.41-3.72-10.08-18-12.3-33.46l58.64.6,7.51.08,43.68.45c3.35,2.85,5.56,5.8,4.65,7.86a1.77,1.77,0,0,1-1.18,1.08C273.85,220,274.93,222.11,273.73,223.87Z" style="opacity:0.1"></path><path d="M155.24,199.53l27.68-10.14s-7.49-19.18-15.11-29-12.46-4.1-13.25,8S155.24,199.53,155.24,199.53Z" style="fill:#EEBEFA"></path><path d="M179.68,184.92c-4.38,1.31-16.15,5.23-23.45,8.82,0,0,0,.21.07.19,6.53-2,19.23-7,23.47-8.73C179.85,185.17,179.76,184.9,179.68,184.92Z" style="fill:#263238"></path><path d="M180.65,190.23l-25.41,9.3s-1.47-19.09-.68-31.16c.51-7.79,2.71-12.93,6.25-13Z" style="opacity:0.1"></path><path d="M171,167.59c-4.23-.41-6.68-8-7-13.21,0-.4,1.64-3.72,3.53-7.87,1.13-2.52,2.33-5.35,3.25-8L186,148.26a45.11,45.11,0,0,0-5.11,9.68,6.4,6.4,0,0,0-.26,1.14s0,.12,0,.19C180.22,161.46,175.05,168,171,167.59Z" style="fill:#ffc4c0"></path><path d="M180.64,159.08l0,.19a10.62,10.62,0,0,1-1.74-.5c-9-3.3-8.07-15.24-7.35-19.76l14.5,9.26a44.52,44.52,0,0,0-5.1,9.68A5.26,5.26,0,0,0,180.64,159.08Z" style="fill:#263238"></path><path d="M168.86,114.68c-3.47,7-3.53,25.9.91,31.51,6.44,8.14,18.75,10.86,26.11,2.72,7.13-7.89,6.9-31.81,1.77-37.09C190.1,104,174,104.37,168.86,114.68Z" style="fill:#ffc4c0"></path><path d="M200.3,123.3s-.45,4.5-3.57,5.32c-.25.06-9.8,20.44-28.84,15.11,0,0-9.17-15.49-3.87-27,3.42-7.45,9.19-8.65,9.19-8.65s12.86-7.76,24.7-.5S205.17,123.63,200.3,123.3Z" style="fill:#EEBEFA"></path><path d="M200.3,123.3s-.45,4.5-3.57,5.32c-.25.06-9.8,20.44-28.84,15.11,0,0-9.17-15.49-3.87-27,3.42-7.45,9.19-8.65,9.19-8.65s12.86-7.76,24.7-.5S205.17,123.63,200.3,123.3Z" style="opacity:0.5"></path><path d="M196.93,133.15s-2.13-6.71-5.06-6.12-2.52,9.48.07,11.48a3.13,3.13,0,0,0,4.5-.35Z" style="fill:#ffc4c0"></path><path d="M192.05,129.58s-.07,0,0,.07c1.8,1.48,2.28,3.72,2.42,5.93a1.72,1.72,0,0,0-2.32-1.22c-.06,0,0,.12,0,.13a1.92,1.92,0,0,1,1.82,1.27,9,9,0,0,1,.46,1.94c0,.21.4.21.4,0v-.05C195.67,135,194.78,130.72,192.05,129.58Z" style="fill:#263238"></path><path d="M195.65,129.74s1.93-10.09-.36-16.06c-2.55-6.66-13.06-9.81-18.42-7.41,0,0,8.28-2.18,14.34,7.36,2.56,4,1,16,1,16Z" style="fill:#c7c7c7"></path><path d="M185.5,133.71c-.69,5.18,2.43,9.86,7,10.47s8.78-3.11,9.47-8.28-2.43-9.87-7-10.47S186.18,128.53,185.5,133.71Z" style="fill:#c7c7c7"></path><path d="M187.93,133.74c-.62,4.65,2.19,8.86,6.27,9.4s7.9-2.79,8.51-7.44-2.19-8.86-6.27-9.41S188.55,129.08,187.93,133.74Z" style="fill:#EEBEFA"></path><path d="M187.93,133.74c-.62,4.65,2.19,8.86,6.27,9.4s7.9-2.79,8.51-7.44-2.19-8.86-6.27-9.41S188.55,129.08,187.93,133.74Z" style="fill:#fff;opacity:0.2"></path><path d="M191.94,134.35c-.38,2.86,1.35,5.45,3.86,5.79s4.85-1.72,5.23-4.58-1.35-5.45-3.86-5.78S192.32,131.5,191.94,134.35Z" style="fill:#fff;opacity:0.4"></path><path d="M207.11,345l-26.94,50.34c-4.71,9.44-8.67,17.79-10.32,22.31a.14.14,0,0,0,0,.07c-.62,1.7-.91,2.84-.76,3.26a.24.24,0,0,0,0,.09c1.85,3.3,76.16,43.13,79.21,43.65s4.78-8.16,3.13-12-23.29-31.82-23.29-31.82l26.45-50.53Z" style="fill:#ffc4c0"></path><path d="M232.75,423.21c-4.6-3.34-11.14-5.51-16.72-3.75-.21.06-.11.37.08.4a78.48,78.48,0,0,1,16.31,4A.36.36,0,0,0,232.75,423.21Z" style="fill:#263238"></path><path d="M235.34,427.15c-4.59-3.35-11.14-5.52-16.71-3.76-.22.07-.12.37.07.4a78,78,0,0,1,16.32,4A.36.36,0,0,0,235.34,427.15Z" style="fill:#263238"></path><path d="M237.94,431.08c-4.6-3.35-11.14-5.52-16.71-3.76-.22.07-.12.37.07.4a78.59,78.59,0,0,1,16.32,4A.36.36,0,0,0,237.94,431.08Z" style="fill:#263238"></path><path d="M248.32,464.7c-3.07-.52-77.36-40.34-79.23-43.65-.73-1.25,4.45-12.42,11.08-25.73l.21-.41,48.22,25.16-.45.8s21.62,28,23.28,31.83S251.37,465.23,248.32,464.7Z" style="fill:#37474f"></path><path d="M180.38,394.9l-.22.43c-6.62,13.31-11.8,24.47-11.07,25.72.84,1.5,16.72,10.58,34,20.08,20.72,11.36,43.51,23.3,45.18,23.58,3.07.52,4.77-8.18,3.13-12s-23.29-31.82-23.29-31.82l.45-.79-16.08-8.4Z" style="fill:#EEBEFA"></path><path d="M249,461.37c-12.36-7-62.87-34.17-75.62-40.18-.11,0-.14,0,0,.08,12.09,7.23,62.82,34,75.55,40.3C249.18,461.71,249.28,461.52,249,461.37Z" style="fill:#263238"></path><path d="M183.1,387.51l53.31,28s40.71-79.17,47.83-121.9c1.32-7.93-12.67-31.22-22.26-36.25-19.49-10.21-72-8.92-82.45-13.28-3.35-1.4-3-17.84-3-17.84l-57.71.91s-18.68,33.38-2.21,57.24c17.59,25.5,104.51,17.17,104.51,17.17Z" style="fill:#263238"></path><path d="M189.82,377.29a44,44,0,0,1,4.46,2c1.65.75,3.29,1.48,4.92,2.27q4.68,2.28,9.26,4.75c6.18,3.3,12.32,6.68,18.37,10.19,3.45,2,6.88,4,10.27,6.12.13.08,0,.29-.12.22-6.23-3.08-12.4-6.28-18.57-9.46S206.06,387,200,383.58c-1.73-1-3.48-1.94-5.17-3s-3.54-1.91-5.12-3.08C189.64,377.44,189.69,377.24,189.82,377.29Z" style="fill:#37474f"></path><path d="M284.23,293.6C280.5,316,267.49,348.52,256,374.33l-36.58-68.94-1.88-3.56-29.72-56c18.6,2.47,57.9,3,74.17,11.52C271.57,262.38,285.55,285.68,284.23,293.6Z" style="fill:#37474f"></path><path d="M263.26,377.28s7.63,55.12,7.63,55.16c.24,10.54.64,19.78,1.29,24.54a.1.1,0,0,0,0,.07c.24,1.8.52,2.94.85,3.24l.06.07c3.19,2.05,87.49,2.57,90.44,1.59s.41-9.44-2.85-12.07-35.46-17.26-35.46-17.26l-8.15-55.08Z" style="fill:#ffc4c0"></path><path d="M330.41,432.54c-5.63-.81-12.43.33-16.54,4.49-.16.16.08.38.25.32a78.1,78.1,0,0,1,16.29-4.1A.36.36,0,0,0,330.41,432.54Z" style="fill:#263238"></path><path d="M334.54,434.81c-5.63-.81-12.43.32-16.53,4.48-.16.16.07.39.25.32a79.2,79.2,0,0,1,16.29-4.1A.35.35,0,0,0,334.54,434.81Z" style="fill:#263238"></path><path d="M338.67,437.07c-5.63-.81-12.43.33-16.53,4.49-.16.16.07.38.25.32a77.94,77.94,0,0,1,16.29-4.1A.36.36,0,0,0,338.67,437.07Z" style="fill:#263238"></path><path d="M363.55,462c-2.95,1-87.25.45-90.44-1.61-1.23-.76-1.87-13-2.22-27.91V432l54.38-.27,0,.92s32.17,14.63,35.45,17.26S366.5,461,363.55,462Z" style="fill:#EEBEFA"></path><path d="M362.61,458.68c-14.2-.43-71.55-.85-85.62-.2-.12,0-.12.08,0,.09,14.08.74,71.42.69,85.63.34C362.91,458.91,362.91,458.69,362.61,458.68Z" style="fill:#263238"></path><path d="M241.79,313.89c3.76,11.77,27,112.18,27,112.18l62.07-.86s-26.65-128.25-41.68-147c-24.36-30.31-103.37-31.71-104.52-34.92-1.69-4.74-.63-17.7-.63-17.7l-64,1.48S99.92,265.39,123.64,287C144.7,306.15,239.42,306.45,241.79,313.89Z" style="fill:#263238"></path><path d="M271.87,414.33c7.06-.35,14.39-.71,21.46-.67s14.05,0,21.06.3c4,.17,7.94.23,11.92.56a.11.11,0,0,1,0,.22c-7.05.56-14.15.62-21.22.69s-14,.14-21.06-.06c-4-.11-7.94-.24-11.92-.44C271.68,414.9,271.44,414.35,271.87,414.33Z" style="fill:#37474f"></path><path d="M186.07,204,184,225.76l-65.17,1.38s17.38-54,36.5-70.62c9.56-8.28,19.48-6.46,25.13.72,1.42,1.82,12.93,23.18,13.86,33.12C195.1,199.13,186.07,204,186.07,204Z" style="fill:#EEBEFA"></path><path d="M166.27,171.9c5.86,28.46,14.12,60.07,20.56,64,12.17,7.36,49.23,1.33,55.37.64,4.93-.56,9.57-37.82,4.27-38.22-5.49-.41-37.32,4.3-39.55,3.34-1.7-.73-13.25-18.27-24.45-35.11C167.57,144.12,162.35,152.9,166.27,171.9Z" style="fill:#ffc4c0"></path><path d="M242.78,198.41s31.79-3.65,44.66,1.27c6.22,2.38,29.93,17.79,26.39,23.64-3.2,5.3-22-10.27-22-10.27s20.38,14,15.35,19.71-24-14.75-24-14.75,20.62,14.89,14.51,19.92c-4.62,3.8-22.8-13.73-22.8-13.73s17.63,12.92,13,17c-5.06,4.55-22.87-10.58-22.87-10.58-13.4,8.5-23,6.23-29.94,4.38C233.48,234.58,242.78,198.41,242.78,198.41Z" style="fill:#ffc4c0"></path><path d="M285.07,207.74c2.45,1.56,4.95,3.13,7.25,4.9s4.56,3.63,6.69,5.62a50.15,50.15,0,0,1,7.56,8.5c-4.29-5.24-12.45-11.73-14.76-13.5s-4.51-3.66-6.81-5.44C284.94,207.78,285,207.7,285.07,207.74Z" style="fill:#263238"></path><path d="M278.51,216c3,2.13,6.15,4.14,9.1,6.4s6.95,5.56,9.73,8c.21.19,0,.57-.19.39-2.87-2.34-7.12-5.51-10-7.82s-5.71-4.72-8.68-6.91C278.4,216,278.46,215.92,278.51,216Z" style="fill:#263238"></path><path d="M271.61,222a83.42,83.42,0,0,1,13.17,10.85c.2.2,0,.24-.25,0-4.31-3.69-7.66-6.61-13-10.73C271.42,222.09,271.51,221.92,271.61,222Z" style="fill:#263238"></path><path d="M196.5,183.12l-26.88,8.61S164,172.83,164,160.94s7-10.42,14.69-1.76S196.5,183.12,196.5,183.12Z" style="fill:#EEBEFA"></path><path d="M169.45,186.44c4.08-1.58,15.27-5.53,22.9-7.11,0,0,.1.17.06.19-6.13,2.31-18.67,6-22.87,7.19C169.46,186.73,169.37,186.47,169.45,186.44Z" style="fill:#263238"></path><path d="M164.68,176.21s0-.06.07,0c.44.93.83,1.87,1.2,2.84-.38-2.1-.72-4.19-1-6.29a.06.06,0,1,1,.11,0c1.56,6.18,3.27,12.34,4.7,18.55a19.89,19.89,0,0,0,2-.09.09.09,0,0,1,0,.17c-.74.16-1.47.36-2.19.58a.35.35,0,0,1-.46-.17A90.89,90.89,0,0,1,166.33,181c-.26-.57-.52-1.13-.73-1.71A21.57,21.57,0,0,1,164.68,176.21Z" style="fill:#263238"></path><path d="M164.54,128.08a4.55,4.55,0,0,0-1.46,1.08c-1.85,2.05-1.89,5-1.43,7.57.5,2.74,1.67,5.55,1.24,8.37a4.64,4.64,0,0,1-1.48,2.92,4.24,4.24,0,0,1-3.46.68c-1.27-.19-2.74-.7-4,0a3.6,3.6,0,0,0-1.65,2.8c-.37,2.83,1.72,5.34,2.45,8a14.38,14.38,0,0,1-.22,8.54,14.31,14.31,0,0,1-8.1,8.5c-1.38.53-2.85.76-4.25,1.24a5.1,5.1,0,0,0-3.23,2.53c-.44,1,.18,5.08,3.79,8.57.26.25-.21.7-.56.54a17.68,17.68,0,0,1-2-1,19.36,19.36,0,0,1-9.48-14.85,20.2,20.2,0,0,1,1.54-9.62,32.38,32.38,0,0,0,2-5.11,10,10,0,0,0-.12-4.77c-.75-3-2.21-5.78-2.43-8.91a16.8,16.8,0,0,1,1.54-8.14A20,20,0,0,1,146,126.12C151.49,124.53,164.84,127.93,164.54,128.08Z" style="fill:#EEBEFA"></path><path d="M164.37,128.17a7.76,7.76,0,0,0-2.61,2.42,6.48,6.48,0,0,0-.89,3.1c-.12,2.43.75,4.69,1.55,6.94s1.42,4.41.8,6.64a5.29,5.29,0,0,1-1.49,2.55,4.15,4.15,0,0,1-3,1c-2-.08-4.53-.83-6.11.9s-.74,4.29-.2,6.19c1.33,4.63,3.74,10.44.39,14.82a17.89,17.89,0,0,1-6.87,4.92c-1.81.81-4.1,1.82-4.67,3.91,0,.08.1.1.12,0,.64-2.2,3.11-2.82,5-3.57a19,19,0,0,0,6.1-3.8,9.19,9.19,0,0,0,2.75-6.39,21.4,21.4,0,0,0-1.26-7.25c-.37-1.2-.77-2.4-1.11-3.62a7.86,7.86,0,0,1-.39-3.4,2.69,2.69,0,0,1,2.29-2.23,13.77,13.77,0,0,1,3.51.11,5.52,5.52,0,0,0,3-.52,5.09,5.09,0,0,0,1.8-1.77,7.8,7.8,0,0,0,.82-5.58c-.52-2.67-1.92-5.1-2.39-7.79a6.44,6.44,0,0,1,3-7.31A.15.15,0,0,0,164.37,128.17Z" style="fill:#EEBEFA"></path><path d="M143.67,125.05c-5.64,1.53-9.79,6.42-11.18,12a20,20,0,0,0,0,9.49c.67,2.91,1.76,5.79,1.8,8.81,0,3.34-1.77,6.11-3.1,9a17.85,17.85,0,0,0-1.64,7.55,19.2,19.2,0,0,0,5.66,13.51c.46.45.93.88,1.43,1.28.06.05.14-.05.08-.1a18.42,18.42,0,0,1-6.43-13.15,18,18,0,0,1,1-7.25c1-2.86,2.92-5.38,3.59-8.39.62-2.82-.08-5.69-.84-8.41a26.79,26.79,0,0,1-1.41-9,16.48,16.48,0,0,1,8.94-13.82c5.9-2.85,12.58-1.47,18.5.52l2.38.82a.08.08,0,0,0,.06-.14C156.63,125.47,150.05,123.32,143.67,125.05Z" style="fill:#EEBEFA"></path><g style="opacity:0.5"><path d="M164.54,128.08a4.55,4.55,0,0,0-1.46,1.08c-1.85,2.05-1.89,5-1.43,7.57.5,2.74,1.67,5.55,1.24,8.37a4.64,4.64,0,0,1-1.48,2.92,4.24,4.24,0,0,1-3.46.68c-1.27-.19-2.74-.7-4,0a3.6,3.6,0,0,0-1.65,2.8c-.37,2.83,1.72,5.34,2.45,8a14.38,14.38,0,0,1-.22,8.54,14.31,14.31,0,0,1-8.1,8.5c-1.38.53-2.85.76-4.25,1.24a5.1,5.1,0,0,0-3.23,2.53c-.44,1,.18,5.08,3.79,8.57.26.25-.21.7-.56.54a17.68,17.68,0,0,1-2-1,19.36,19.36,0,0,1-9.48-14.85,20.2,20.2,0,0,1,1.54-9.62,32.38,32.38,0,0,0,2-5.11,10,10,0,0,0-.12-4.77c-.75-3-2.21-5.78-2.43-8.91a16.8,16.8,0,0,1,1.54-8.14A20,20,0,0,1,146,126.12C151.49,124.53,164.84,127.93,164.54,128.08Z"></path><path d="M164.37,128.17a7.76,7.76,0,0,0-2.61,2.42,6.48,6.48,0,0,0-.89,3.1c-.12,2.43.75,4.69,1.55,6.94s1.42,4.41.8,6.64a5.29,5.29,0,0,1-1.49,2.55,4.15,4.15,0,0,1-3,1c-2-.08-4.53-.83-6.11.9s-.74,4.29-.2,6.19c1.33,4.63,3.74,10.44.39,14.82a17.89,17.89,0,0,1-6.87,4.92c-1.81.81-4.1,1.82-4.67,3.91,0,.08.1.1.12,0,.64-2.2,3.11-2.82,5-3.57a19,19,0,0,0,6.1-3.8,9.19,9.19,0,0,0,2.75-6.39,21.4,21.4,0,0,0-1.26-7.25c-.37-1.2-.77-2.4-1.11-3.62a7.86,7.86,0,0,1-.39-3.4,2.69,2.69,0,0,1,2.29-2.23,13.77,13.77,0,0,1,3.51.11,5.52,5.52,0,0,0,3-.52,5.09,5.09,0,0,0,1.8-1.77,7.8,7.8,0,0,0,.82-5.58c-.52-2.67-1.92-5.1-2.39-7.79a6.44,6.44,0,0,1,3-7.31A.15.15,0,0,0,164.37,128.17Z"></path><path d="M143.67,125.05c-5.64,1.53-9.79,6.42-11.18,12a20,20,0,0,0,0,9.49c.67,2.91,1.76,5.79,1.8,8.81,0,3.34-1.77,6.11-3.1,9a17.85,17.85,0,0,0-1.64,7.55,19.2,19.2,0,0,0,5.66,13.51c.46.45.93.88,1.43,1.28.06.05.14-.05.08-.1a18.42,18.42,0,0,1-6.43-13.15,18,18,0,0,1,1-7.25c1-2.86,2.92-5.38,3.59-8.39.62-2.82-.08-5.69-.84-8.41a26.79,26.79,0,0,1-1.41-9,16.48,16.48,0,0,1,8.94-13.82c5.9-2.85,12.58-1.47,18.5.52l2.38.82a.08.08,0,0,0,.06-.14C156.63,125.47,150.05,123.32,143.67,125.05Z"></path></g><path d="M164.75,124.62a2.78,2.78,0,0,0-2.64.86c-.29.6.87,5.63,2,6.25s2.56-1.26,2.56-1.26Z" style="fill:#EEBEFA"></path><rect x="150.7" y="315.19" width="9.09" height="6.45" transform="translate(310.49 636.82) rotate(180)" style="fill:#a6a6a6"></rect><rect x="147.03" y="321.64" width="16.43" height="89.54" transform="translate(310.49 732.82) rotate(180)" style="fill:#dbdbdb"></rect><rect x="163.46" y="354.03" width="7.22" height="3.05" transform="translate(334.14 711.1) rotate(180)" style="fill:#a6a6a6"></rect><rect x="170.68" y="352.42" width="14.69" height="6.27" transform="translate(356.05 711.1) rotate(180)" style="fill:#c7c7c7"></rect><rect x="144.91" y="411.18" width="21.18" height="19.1" transform="translate(310.99 841.46) rotate(180)" style="fill:#a6a6a6"></rect><rect x="147.03" y="406.17" width="16.43" height="5.01" transform="translate(310.49 817.35) rotate(180)" style="fill:#c7c7c7"></rect><circle cx="95.49" cy="451.32" r="10.73" style="fill:#37474f"></circle><circle cx="98.01" cy="451.32" r="10.73" style="fill:#263238"></circle><path d="M93,451.32a5,5,0,1,0,5-5.05A5,5,0,0,0,93,451.32Z" style="fill:#fff"></path><path d="M109.94,450.48H83.88c0-6.63,5.55-12,13.34-12C103.72,438.49,109.94,443.85,109.94,450.48Z" style="fill:#a6a6a6"></path><path d="M225.06,451.32a10.73,10.73,0,1,1-10.73-10.73A10.72,10.72,0,0,1,225.06,451.32Z" style="fill:#37474f"></path><path d="M222.54,451.32a10.73,10.73,0,1,1-10.73-10.73A10.73,10.73,0,0,1,222.54,451.32Z" style="fill:#263238"></path><path d="M216.85,451.32a5,5,0,1,1-5-5.05A5,5,0,0,1,216.85,451.32Z" style="fill:#fff"></path><path d="M199.88,450.48H226c0-6.63-5.56-12-13.34-12C206.11,438.49,199.88,443.85,199.88,450.48Z" style="fill:#a6a6a6"></path><ellipse cx="156.39" cy="451.7" rx="8.66" ry="10.73" style="fill:#37474f"></ellipse><path d="M163,451.7c0,5.93-3.88,10.73-8.67,10.73s-8.66-4.8-8.66-10.73S149.57,441,154.35,441,163,445.78,163,451.7Z" style="fill:#263238"></path><path d="M158.42,451.7c0,2.79-1.82,5.05-4.07,5.05s-4.07-2.26-4.07-5.05,1.82-5,4.07-5S158.42,448.92,158.42,451.7Z" style="fill:#fff"></path><path d="M144.72,450.87h21.05c0-6.63-4.49-12-10.77-12C149.75,438.88,144.72,444.24,144.72,450.87Z" style="fill:#a6a6a6"></path><polygon points="101.56 440.23 93.59 440.23 93.59 426.39 155.24 426.39 155.24 434.37 101.56 434.37 101.56 440.23" style="fill:#a6a6a6"></polygon><polygon points="216.9 440.23 208.93 440.23 208.93 434.37 155.24 434.37 155.24 426.39 216.9 426.39 216.9 440.23" style="fill:#a6a6a6"></polygon><rect x="151.26" y="430.38" width="7.97" height="9.85" style="fill:#a6a6a6"></rect><path d="M143.79,160.19l-7.12-36.41H73.85L90,321.63H168.6l4.51-69.6ZM87.1,150.54l1.32-12.31H113l5.5,12.31Z" style="fill:#EEBEFA"></path><path d="M143.79,160.19l-7.12-36.41H73.85L90,321.63H168.6l4.51-69.6ZM87.1,150.54l1.32-12.31H113l5.5,12.31Z" style="opacity:0.1"></path><path d="M136,160.19l-6.5-31H74.31L90,321.63h70.89l4.51-69.6ZM87.1,150.54l1.32-12.31H113l5.5,12.31Z" style="opacity:0.1"></path><polygon points="167.81 321.63 169.3 298.53 192.41 284.52 241.64 284.52 252.24 300.81 249.59 321.63 167.81 321.63" style="fill:#EEBEFA"></polygon><polygon points="167.81 321.63 169.3 298.53 192.41 284.52 241.64 284.52 252.24 300.81 249.59 321.63 167.81 321.63" style="opacity:0.1"></polygon><polygon points="174.79 321.63 176.12 303.09 196.55 291.84 240.09 291.84 249.46 304.92 247.12 321.63 174.79 321.63" style="opacity:0.1"></polygon><rect x="204.1" y="262.28" width="27.41" height="22.25" style="fill:#a6a6a6"></rect><rect x="185.69" y="252.43" width="66.55" height="9.85" style="fill:#a6a6a6"></rect></g></svg>
